<svg width="16" height="16" xmlns="http://www.w3.org/2000/svg">
    <defs>
        <clipPath clipPathUnits="userSpaceOnUse" id="clipPath20">
            <path d="m4852.61,899.898c-39.38,-104.046 -112.24,-201.597 -213.3,-271.207c-41.83,-30.75 -89.03,-54.66 -136.75,-71.089c-35.6,-11.782 -77.69,-20.301 -119.96,-23.293c-42.37,-3.168 -84.72,-0.789 -120.93,4.832c2.55,-1.93 -6.59,-1.762 -21.27,-0.352c-7.29,1.063 -16,2.461 -25.22,4.043c-9.32,1.59 -18.99,4.309 -28.56,6.508c-9.67,2.109 -18.72,5.449 -27.07,7.82c-8.26,2.551 -15.73,4.391 -21.27,6.422c-11.16,3.688 -15.82,4.648 -7.82,0c-11.43,5.008 -24.43,10.277 -36.92,16.867c-6.32,3.16 -12.65,6.332 -18.8,9.41c-5.98,3.422 -11.87,6.672 -17.4,9.84c-5.53,3.25 -10.81,6.063 -15.46,8.883c-4.58,2.977 -8.71,5.617 -12.22,7.906c-7.03,4.481 -11.6,7.282 -12.57,7.633c-2.9,0.879 -6.86,3.25 -13.1,7.027c-3.16,2.032 -6.76,4.313 -11.07,7.211c-2.2,1.5 -4.48,2.993 -6.94,4.75c-2.38,1.93 -4.93,3.86 -7.65,6.063c-21.88,16.879 -55.1,45.617 -93.33,100.109c-14.59,21.52 -31.55,49.91 -43.24,76.008c-3.25,6.332 -5.72,12.84 -8.35,18.731c-2.46,5.968 -5.1,11.332 -6.86,16.519c-1.4,3.781 -2.72,7.211 -3.86,10.281c0.7,-1.929 1.49,-4.039 2.19,-6.058c2.73,-7.91 6.16,-15.563 7.83,-19.782c0.26,-0.699 0.52,-1.398 0.7,-1.839c0.09,-0.27 0.17,-0.532 0.35,-0.789c0.09,-0.09 0.09,-0.18 0.09,-0.27l0.09,-0.094c36.03,-87.09 95.7,-164.609 171.64,-222.258c38.49,-29.441 80.93,-53.781 125.23,-73.378c44.12,-19.422 91.13,-35.77 139.91,-43.864c48.69,-8.609 98.78,-10.718 148.62,-6.59c49.82,4.223 99.13,15.473 146.85,31.993c47.72,16.531 93.51,39.379 136.49,67.148c42.96,27.68 83.13,60.461 119.25,97.992c5.8,6.68 14.15,15.379 23.47,26.891c4.66,5.797 10.11,11.867 15.38,18.898c5.27,7.032 10.99,14.578 17.04,22.578c23.56,32.614 50.01,75.5 72.86,127.973c1.94,4.211 3.7,8.598 5.54,13l-102.73,0c-0.27,-0.801 -0.53,-1.672 -0.88,-2.473z" id="path18"/>
        </clipPath>
        <clipPath clipPathUnits="userSpaceOnUse" id="clipPath38">
            <path d="m3864.43,1592.18c10.29,0.35 36.3,11.68 58.18,18.18c6.94,3.43 10.9,3.43 13.53,2.11c2.55,-1.32 3.78,-3.95 5.36,-6.24c3.17,-4.48 8.09,-7.73 28.22,2.64c-12.66,-9.84 -22.42,-16.96 -31.12,-25.4c-4.39,-4.04 -8.87,-8.08 -13.8,-12.56c-4.64,-4.49 -10.36,-8.79 -15.63,-14.95c0.97,-2.19 5.01,1.85 11.69,7.47c6.58,5.8 14.84,14.07 22.93,21.89c2.02,1.93 4.04,3.87 5.98,5.71c2.02,1.67 4.04,3.26 5.97,4.75c3.87,2.99 7.3,5.45 10.11,7.12c5.54,3.33 8.35,3.33 6.06,-2.73c-6.41,-4.22 -12.74,-8.87 -18.98,-13.97c-5.8,-5.45 -11.51,-11.25 -17.23,-17.23c-5.53,-5.89 -11.42,-11.69 -16.77,-17.75c-5.19,-6.33 -10.38,-12.48 -15.74,-18.19c3.96,0.09 10.73,4.92 18.55,12.04c3.77,3.69 8.6,7.2 13.26,11.25c4.66,4.04 9.49,8.17 14.24,12.3c4.83,4.04 9.14,8.35 13.89,11.6c4.57,3.25 8.87,6.24 12.48,8.53c7.38,4.48 12.39,6.5 13.09,3.51c-5.54,-6.41 -25.31,-16.26 -41.31,-29.18c-8.17,-6.24 -16.17,-12.3 -21.35,-18.01c-4.92,-6.07 -7.47,-11.16 -5.88,-14.68c0.6,-1.41 6.14,3.52 12.73,10.19c7.21,6.24 15.65,13.98 21.27,19.25c-4.04,-4.31 -8,-8.53 -11.87,-12.57c-3.69,-4.04 -7.47,-7.82 -10.45,-12.04c-6.23,-8.26 -11.77,-15.9 -16.52,-22.76c-2.37,-3.51 -4.57,-6.76 -6.5,-9.84c-1.76,-3.25 -3.25,-6.33 -4.57,-9.14c-2.64,-5.63 -4.48,-10.37 -5.36,-13.98c-1.76,-7.29 0.17,-10.28 6.24,-8.08c3.07,1.14 7.2,3.6 12.39,7.47c2.64,1.93 5.53,4.22 8.6,6.94c3.26,2.55 7.12,5.28 11.17,8.44c-2.38,-2.64 -4.93,-5.27 -7.56,-8c-2.64,-2.9 -5.01,-5.97 -7.74,-9.05c-5.35,-6.15 -10.97,-12.65 -16.6,-19.07l-4.31,-4.92l-3.78,-5.27c-2.37,-3.52 -4.83,-7.03 -7.2,-10.46c-4.66,-6.95 -8.97,-13.8 -12.57,-20.3c0.09,-0.09 0.26,0 0.35,0c4.13,6.15 10.28,14.32 16.26,22.32c2.9,3.95 5.8,8 8.53,11.69c2.9,3.51 5.62,6.59 7.64,9.31c-2.46,-3.34 -5.18,-6.59 -7.56,-10.02l-6.85,-10.63l-13.62,-21.18c3.16,1.14 6.41,2.55 9.84,4.13c4.04,4.83 7.91,9.67 11.69,14.68c1.93,2.46 3.78,5.01 5.62,7.64c1.76,2.55 3.96,4.93 5.89,7.56l-5.01,-6.59l-4.39,-6.94l-8.88,-13.89c8.44,4.31 16.7,9.93 25.84,15.82c15.28,12.48 29.61,24.52 43.94,33.31c6.94,4.57 13.09,8.96 18.37,13.18c5.71,3.87 10.54,7.3 14.06,10.81l10.98,10.37l5.54,5.19l5.89,4.65l23.55,19.08c16.69,11.24 32.87,23.46 50.8,32.95l13.09,7.74c4.31,2.55 9.05,4.48 13.62,6.76l13.63,6.59c4.57,2.2 8.96,4.84 13.8,6.42l28.3,11.24c4.66,2.12 9.67,3.17 14.5,4.75l14.49,4.57c77.96,23.38 161.62,27.69 243.19,12.22c1.31,4.04 -6.68,9.58 7.55,9.14c5.63,-0.27 10.98,-1.32 16.08,-2.64c5.18,-1.23 10.11,-2.63 15.03,-4.22c9.67,-3.42 18.89,-7.38 27.95,-11.42c17.93,-8.7 35.5,-17.49 56.25,-25.22c1.84,1.41 3.86,2.81 5.8,4.22c29.87,-17.14 58.87,-38.41 86.21,-62.4c54.23,-39.64 101.33,-90.08 137.89,-148c0.7,2.46 1.84,4.04 6.06,-1.49c15.56,-24.26 31.91,-60.9 44.21,-100.45c2.11,-5.72 4.22,-11.52 6.33,-17.15c2.46,-4.3 4.31,-5.09 5.54,-5.62c4.92,-18.28 8,-34.8 10.45,-50.18c8.08,-35.06 12.48,-71.45 13.09,-108.36l116.37,0c1.76,22.85 2.64,46.14 2.11,69.78c-0.62,36.03 -4.92,72.59 -11.69,108.89c-6.86,36.3 -16.52,72.41 -29.36,107.31c-12.92,34.8 -28.47,68.55 -46.31,100.45c-17.76,32.07 -38.06,62.04 -59.94,89.73c-21.79,27.59 -45,53.25 -69.34,75.75c-2.99,2.91 -5.98,5.72 -8.97,8.53c-3.07,2.72 -6.15,5.36 -9.23,8.08c-6.15,5.27 -12.12,10.72 -18.28,15.64c-12.48,9.85 -24.51,19.69 -36.99,28.22c-24.52,17.84 -49.13,32.34 -72.16,45.34c-46.39,25.41 -88.14,41.49 -119.08,51.77c-7.65,2.46 -15.12,4.75 -22.85,6.5c-68.37,20.57 -148.79,30.67 -225.86,25.14c-77.08,-5.19 -150.28,-24.88 -205.13,-51.32c-49.73,-25.67 -96.58,-57.74 -137.45,-95.27c24.35,9.84 46.23,18.98 66.62,23.82c-6.06,-3.17 -12.21,-6.33 -18.19,-9.5c-5.8,-3.43 -11.51,-7.03 -17.05,-10.54c-11.08,-7.12 -21.97,-13.71 -31.29,-20.57c-18.27,-14.32 -32.86,-26.54 -39.28,-35.24c-9.84,-10.81 -17.4,-19.77 -23.11,-27.07c-5.72,-7.29 -9.58,-12.92 -11.43,-17.67c-4.04,-9.22 -2.11,-12.65 3.25,-12.73z" id="path36"/>
        </clipPath>
        <clipPath clipPathUnits="userSpaceOnUse" id="clipPath56">
            <path d="m3539.73,1811.48c-6.95,-11.22 -13.69,-21.62 -20.16,-30.63c2.19,24.57 4.5,49.13 -1.88,58.57c-13.67,52.31 -35.25,22.68 -61.28,2.55c-11.42,-14.47 -28.89,5.1 -40.17,-17.56c0.33,16.33 0.5,24.51 0.83,40.92c-10.93,1.88 6.21,-50.42 -11.54,-39.05c3.8,15.75 -3.18,33.39 -3.02,49.74c-14.84,-5.67 -4.14,-56.67 -18.45,-54.15c-3.81,8.83 18.26,45.96 -0.07,49.13c-3.71,0.62 -3.65,-15.75 -3.62,-23.93c-7.17,50.38 -27.23,78.14 -44.58,32.15c-0.56,15.96 6.02,38.53 2.4,55.42c-0.11,-0.02 -0.19,-0.09 -0.3,-0.13c-0.14,-8.42 -3.11,-22.96 -2.86,-30.73c-0.28,9.56 -0.57,19.17 -0.85,28.75c-2.59,-1.51 -5.11,-3.22 -7.61,-5.03c-1.84,-7.15 -3.19,-14.34 -2.93,-21.82c-0.23,6.35 -0.47,12.71 -0.7,19.1c-5.84,-4.76 -11.38,-10.24 -16.42,-16.26c-10.3,-22.68 -25.4,-44.4 -24.52,-56.67c1.55,-99.08 7.57,-198.6 17.85,-297.6c5.42,-0.18 10.3,5.1 13.63,-3.11c7.56,-25.82 -7.8,-46.57 0.05,-72.41l8.36,-1.86c-1.45,-19.99 -3.68,-40.82 -4.92,-62.08c5.52,-39.16 11.58,-78.11 18.06,-116.91c2.4,1.01 4.68,1.49 5.98,-2.37c3.44,-16.13 3.29,-38.48 5.02,-61.63c0.71,-3.43 1.43,-6.85 2.13,-10.22c1.65,-2.63 3.93,-3.31 5.33,-3.73c0.79,-10.47 1.08,-19.78 1.27,-28.41c5.69,-27.98 11.21,-56.07 16.51,-84.39l0.05,0c5.89,-31.72 11.6,-63.8 16.86,-96.22c8.7,-52.91 16.53,-107.051 23.12,-163.031c0.35,-3.508 0.88,-7.027 1.23,-10.539c3.87,-21.891 7.12,-43.692 9.4,-64.961l45.33,5.672l-45.35,-5.692c0.47,-4.5 0.96,-9 1.33,-13.429c2.31,-37.77 2.09,-85.961 3.28,-122.789c3.7,2.828 7.02,-18.2 9.48,-37.692c2.56,-19.5 4.27,-37.461 7.36,-28.508c-0.81,-24.531 -1.87,-61.39 -0.79,-63.293c3.33,-5.699 6.59,-24.589 1.39,-89.769c-2,-21.598 -4.86,-52.367 -6.24,-67.219c0.11,0.981 0.23,1.981 0.37,2.981c0.87,8.269 1.9,16.531 1.18,9.449c10.96,94.851 21.73,187.851 32.51,281.07c4.94,45.649 9.89,91.36 14.86,137.328l-0.02,0c2.81,26.012 5.63,52.012 8.53,78.203c2.37,22.059 4.74,44.2 7.2,66.528c0.18,14.672 2.46,48.511 5.89,93.331c2.02,26.28 4.48,56.34 7.2,88.59l-0.04,0c2.85,34.26 5.98,70.96 9.16,108.13c11.42,131.77 24.51,269.49 33.24,325.78l0.65,10.23c7.82,61.41 13.44,136 4.6,187.98c-6.2,23.84 -14.67,48.08 -23.32,72.22z" id="path54"/>
        </clipPath>
        <clipPath clipPathUnits="userSpaceOnUse" id="clipPath74">
            <path d="m3437.43,346.52c-0.12,-1.301 -0.22,-2.481 -0.31,-3.329c-0.02,-5.261 -0.12,-2.062 0.31,3.329z" id="path72"/>
        </clipPath>
        <clipPath clipPathUnits="userSpaceOnUse" id="clipPath92">
            <path d="m5921.31,981.59c-86.87,6.824 -173.33,13.621 -259.5,20.39c-86.22,6.52 -172.12,14.29 -258.06,17.58c-85.92,4.21 -171.66,8.42 -257.32,12.62l-57.42,2.74l-0.01,-0.02l-71.09,3.43c-7.21,0.26 -14.32,0.35 -21.44,0.53c-35.68,0.96 -71.45,1.58 -107.13,2.46l-3.08,0c-40.6,0.7 -81.2,1.58 -121.89,2.46c-129.99,2.81 -260.32,5.71 -391.18,3.42c-86.47,-0.61 -173.22,-1.14 -260.31,-1.66c-21.8,0.17 -43.5,-0.71 -65.38,-1.41c-21.8,-0.62 -43.59,-1.32 -65.48,-2.02c-43.77,-1.32 -87.62,-2.64 -131.56,-3.96c-29.88,-2.02 -81.29,-4.57 -149.14,-7.65c-16.96,-0.87 -34.98,-1.4 -53.87,-2.54c-18.19,-1.32 -37.26,-2.55 -57.22,-3.96l-15.02,-155.02c34.36,4.481 68.9,8.872 103.7,12.739c54.14,5.363 108.62,10.711 163.55,16.07c55.02,5.281 110.47,10.551 166.37,15.91c27.95,2.551 56.06,5.192 84.36,7.832c28.22,1.84 56.69,3.688 85.26,5.617c96.49,8.532 193.25,16.614 286.5,21.883c69.07,4.223 147.81,3.782 226.04,3.957c28.12,0.09 56.15,0.09 83.66,0.18c32.78,0.086 64.69,0.086 95.27,0.176c15.2,0 30.23,0 44.64,0.086c-5.18,3.601 11.51,6.945 38.5,10.019c7.82,0.879 16.52,1.758 25.84,2.637c6.68,0.613 13.53,1.23 20.74,1.844c17.13,1.32 35.32,1.933 53.25,2.902c2.9,0.176 5.8,0.266 8.61,0.438l22.1,51.12l-22.07,-51.12c68.05,3.386 127.52,6.476 96.13,13.839c90,-3.027 225.16,-7.453 232.22,-4.289c10.63,4.782 33.36,9.539 83.39,12.43c50.01,2.52 127.23,0.785 246.85,-4.844c93.59,-5.508 236.95,-18.957 269.99,-19.676c52.05,-1.355 -120.82,14.067 -68.8,12.86z" id="path90"/>
        </clipPath>
        <clipPath clipPathUnits="userSpaceOnUse" id="clipPath110">
            <path d="m1022.732959,-346.366456l6000,0l0,1950l-6000,0l0,-1950z" id="path108"/>
        </clipPath>
        <clipPath clipPathUnits="userSpaceOnUse" id="clipPath116">
            <path d="m1780.896959,154.633544c-13.867,-8.32 -27.637,-16.629 -41.434,-24.949c13.797,8.32 27.583,16.64 41.395,24.969c22.691,12.929 45.406,25.871 68.152,38.839c4.332,2.45 8.664,4.942 12.996,7.403c-4.332,-2.461 -8.668,-4.953 -13,-7.41c-22.761,-12.922 -45.437,-25.93 -68.109,-38.852zm2542.316,503.84c-158.19,-11.688 -336.16,-28.031 -517.02,-45.961c-60.47,-6.856 -121.28,-13.801 -181.75,-20.66c-30.32,-3.418 -60.46,-6.758 -90.52,-10.188c-15.03,-1.672 -29.97,-3.429 -44.91,-5.101c-14.94,-1.758 -29.79,-4.039 -44.56,-5.981c-118.29,-16.609 -233.15,-31.711 -339.23,-47.09c-105.9,-17.058 -203.1,-32.699 -286.77,-46.238c-41.92,-6.062 -80.06,-14.152 -114.42,-20.121c-34.36,-6.07 -64.68,-11.52 -90.44,-16.09c-12.38,-2.539 -24.78,-5.012 -37.08,-7.551c-112.32,-18.988 -235.36,-47.98 -354,-75.839c-51.43,-11.5 -101.28,-25.891 -149.2,-39.668c17.55,9.41 34.99,18.769 52.61,28.218c30.69,19.102 108.88,60.071 211.25,114.039c103.02,52.922 231.24,117.161 364.18,179.465c85.64,40.576 173.14,80.466 256.34,117.426c21.92,3.63 43.81,7.37 65.62,11.32c-0.93,2.41 -1.37,4.69 2.18,5.99c14.82,3.44 35.35,3.29 56.62,5.01c3.14,0.73 6.28,1.44 9.37,2.15c2.42,1.64 3.05,3.92 3.44,5.32c9.61,0.79 18.16,1.09 26.08,1.27c104.41,23.12 210.43,43.46 325.33,57.8c24.3,4.61 48.61,8.59 72.02,10.68c34.69,2.31 78.96,2.09 112.77,3.29c-2.59,3.7 16.73,7 34.63,9.46c17.91,2.58 34.41,4.28 26.18,7.38c22.54,-0.82 56.4,-1.87 58.13,-0.79c5.24,3.32 22.6,6.58 82.47,1.39c19.86,-2.01 48.08,-4.86 61.74,-6.24c-0.9,0.1 -1.82,0.22 -2.74,0.36c-7.59,0.87 -15.19,1.91 -8.69,1.18c-87.12,10.97 -172.54,21.73 -258.15,32.51c-81.98,9.66 -164.14,19.35 -247.94,29.22c3.73,1.6 7.47,3.22 11.2,4.82c63.86,25.19 133.95,54.18 201.04,83.57c67.25,29.19 131.21,59.19 182.22,87.25c46.06,27.51 92.03,57.44 137.73,87.47c-25.74,-3.96 -49.72,-7.33 -70.76,-9.7c51.05,20.54 102.09,40.97 118.76,55.43c69.97,41.58 58.59,50.95 27.79,54.54c16.75,5.05 36.51,12.4 56.83,18.05c9.42,4.91 18.07,10.32 25.64,16.02c-9.76,0.43 -19.49,0.87 -29.2,1.3c11.43,-0.5 22.49,0.64 33.54,2.25c2.88,2.45 5.62,4.91 8.06,7.45c-14.66,0.61 -29.36,1.23 -44,1.84c11.91,-0.52 34.3,1.97 47.22,1.79c0.07,0.11 0.17,0.19 0.21,0.3c-25.7,4.25 -60.59,-1.56 -85.01,-0.5c66.19,14.86 34.94,34.03 -31.73,44.58c0.27,0.62 0.44,1.25 0.54,1.89c10.78,-0.06 21.14,0.46 20.63,2.93c-1.48,6.8 -10.04,8.44 -20.95,7.97c1.86,1.13 3.65,2.25 5.42,3.36c11.63,0.83 21.14,2.68 24.03,7.26c-3.79,0.09 -7.63,0.4 -11.5,0.79c47.5,31.59 53.48,49.7 -20.36,30.6c32.46,15.09 81.34,29.73 114.42,48.46c-0.08,0.09 -0.26,0.1 -0.38,0.16c-17.3,-7.58 -48.26,-18.14 -64.08,-25.49c19.46,9.01 39,18.04 58.49,27.06c-4.13,0.98 -8.66,1.73 -13.37,2.36c-15.4,-4.85 -30.67,-10.19 -45.85,-17.27c12.9,6.02 25.83,12.05 38.79,18.1c-12.12,0.98 -25.6,1.02 -39.97,0.12c-13.44,-3.01 -26.86,-5.63 -39.82,-8.11c21.53,16.28 30.41,30.07 -28.17,43.81c-14.37,7.44 -52.57,6.92 -90.75,6.61c14.19,6.08 30.56,12.28 48.23,18.53c-37.16,11.06 -74.57,22.22 -111.49,31.2c-40.32,6.96 -89.59,10.54 -140.74,12.12c-51.15,1.42 -104.18,0.01 -152.06,-1.99c-5.3,0.02 -10.6,0.04 -15.93,0.06c-87.78,-6.18 -302.26,-13.23 -507.12,-24.41c-102.39,-5.79 -202.45,-11.44 -283.25,-16c-80.74,-5.24 -142.27,-7.93 -167.61,-7.82c-147.9,-14.88 -292.4,-29.88 -436.32,-47.44c-143.816,-18.39 -287.05,-39.17 -432.023,-66.23c22.375,-1.96 -49.262,-19.47 -26.879,-21.34c14.207,-1.24 73.422,14.93 112.856,18.63c101.269,4.88 132.652,-13.01 143.359,-29.87c3.57,-5.72 60.043,1.96 97.723,6.32c-25.196,-25.02 113.734,-22.41 107.224,-46.73c56.45,5.08 130.03,15.57 188.27,16.88c39.41,-0.35 80.57,-4.3 121.66,-8.59c193.31,-6.14 371.42,-20.51 546.03,-37.52c13.17,0.94 27.4,1.78 43.41,2.09c0.71,-1.88 1.84,-4.95 5.93,-6.87c5.16,-0.5 10.41,-1.02 15.67,-1.54c35.4,0.65 69.53,3.31 94.27,0.64c5.93,-1.28 5.27,-4.33 3.79,-7.61c59.39,-3.59 118.95,-7.67 178.78,-10.59c32.43,3.75 64.22,7.86 94.76,10.99c0.96,-3.29 1.92,-6.6 2.86,-9.85c39.44,-7.39 71.17,12.37 110.6,4.76c12.51,-3.43 4.41,-9.29 4.65,-15.51c11.12,-0.41 22.25,-0.75 33.38,-1.14c-83.47,-41.09 -166.53,-83.13 -248.89,-126.33c1.93,-5.08 14.76,-4.5 -0.58,-15.28c-49.46,-31.41 -98.16,-37.81 -147.45,-69.76c-0.06,-3.07 -0.13,-6.23 -0.19,-9.36c-20.69,-8.89 -41.83,-17.97 -63.29,-27.2c-21.44,-9.3 -43.1,-19.03 -64.93,-28.95c-29.15,-16.66 -58.18,-33.27 -87.22,-49.87c-52,5.68 -95.52,11.03 -120.93,15.32l-9.39,0.64c-56.41,7.82 -124.92,13.44 -172.67,4.6c-21.89,-6.21 -44.16,-14.67 -66.33,-23.32c10.31,-6.94 19.86,-13.69 28.13,-20.16c-22.57,2.18 -45.12,4.51 -53.79,-1.88c-48.05,-13.66 -20.83,-35.25 -2.35,-61.28c13.3,-11.42 -4.68,-28.89 16.14,-40.17c-15.01,0.34 -22.53,0.5 -37.6,0.84c-1.72,-10.94 46.31,6.2 35.87,-11.55c-14.46,3.8 -30.66,-3.17 -45.68,-3.02c5.2,-14.84 52.05,-4.13 49.74,-18.45c-8.11,-3.8 -42.22,18.27 -45.13,-0.06c-0.57,-3.72 14.46,-3.65 21.98,-3.63c-46.28,-7.16 -71.77,-27.22 -29.53,-44.58c-14.67,-0.55 -35.4,6.02 -50.91,2.4c0.02,-0.11 0.09,-0.19 0.12,-0.3c7.74,-0.13 21.09,-3.11 28.23,-2.85c-8.78,-0.29 -17.6,-0.57 -26.4,-0.86c1.38,-2.58 2.96,-5.1 4.61,-7.61c6.57,-1.84 13.17,-3.19 20.04,-2.92c-5.83,-0.24 -11.68,-0.47 -17.54,-0.71c4.38,-5.84 9.41,-11.38 14.94,-16.41c14.85,-7.35 29.19,-17.04 40.32,-21.73c-192.09,-125.139 -386.08,-254.862 -591.401,-397.08c-47.746,-35.758 -95.774,-70.93 -142.93,-103.329c-7.539,-4.961 -15.246,-10.23 -23.062,-15.64c-31.875,-13.313 -63.731,-26.719 -95.473,-40.11c15.918,2.161 31.219,4.141 46.149,6.028c-9.692,-6.649 -19.422,-13.321 -29.227,-20.039c-9.188,-2.739 -18.102,-5.52 -26.512,-8.59c-36.476,-12.57 -65.969,-23.891 -81.465,-32.668c-146.769,-62.852 -97.906,-63.512 -32.343,-62.313c-12.543,-10.949 -30.707,-25.711 -48.286,-39.769c-34.097,-27.442 -65.863,-52.129 -47.71,-43.008c-11.301,-7.801 -24.016,-16.594 -36.793,-25.434c-12.707,-8.929 -25.094,-18.41 -36.383,-26.707c-22.481,-16.742 -39.785,-29.82 -41.149,-31.531c-4.09,-5.191 -14.074,-14.808 -37.949,-33.621c-23.695,-19.051 -62.305,-45.969 -120.215,-90.359c-45.9763,-34.0511 -116.3005,-86.1409 -132.73803,-98.30891c-1.0625,-0.89062 -1.86328,-1.55078 -2.54297,-2.13281c0.25,0.22266 0.48438,0.41016 0.76953,0.65235c3.82422,3.16015 11.42187,8.50781 18.87497,14.03127c14.9688,10.9687 30.0391,21.7969 17.2344,12.3984c43.0195,31.168 85.8321,62.1992 128.4961,93.1207c21.109,15.7 43.078,30.207 64.797,44.957c21.723,14.711 43.418,29.411 65.086,44.09c85.793,59.821 174.871,114.09 262.215,170.524c4.476,2.758 9.011,5.449 13.5,8.199c0,0 0.004,0 0.004,0.008c6.828,-8.36 -8.934,-25.91 50.261,-14.399c-56.687,-18.992 -84.984,-28.558 -141.929,-47.629c-2.817,-12.66 172.425,65.559 138.855,35.059c-55.637,-14.941 -114.34,-42.359 -170.762,-61.43c24.61,-7.468 196.95,62.66 192.817,45.871c-29.086,-13.882 -164.426,-36.382 -169.172,-57.562c-0.879,-4.297 55.453,14.941 83.578,24.519c-42.629,-16.699 -80.504,-31.546 -109.859,-45.867c-29.262,-14.59 -50.883,-26.812 -62.047,-35.422c-22.406,-17.14 -3.516,-20.129 76.812,1.141c-53.433,-20.918 -131.828,-43.59 -187.367,-68.551c0.086,-0.09 0.352,-0.09 0.527,-0.168c28.383,10.719 78.395,26.449 104.493,36.649c-32.079,-12.481 -64.246,-25.051 -96.407,-37.532c6.063,-0.437 12.739,-0.617 19.77,-0.617c24.695,7.391 49.308,15.301 74.351,24.957c-21.265,-8.258 -42.535,-16.519 -63.89,-24.867c18.191,0.617 38.582,2.367 60.551,5.27c39.812,9.578 79.183,17.578 113.636,25.23c34.977,6.5 65.035,12.828 85.774,20.211c335.629,115.309 682.591,210.477 1030.881,294.758c-0.61,5.801 -20.48,7.031 7.91,16.441c45,13.438 86.92,19.77 128.66,26.188c20.92,3.16 41.75,6.41 63.02,10.543c21.35,4.047 43.24,8.09 65.91,14.238c1.58,3.34 3.25,6.77 4.92,10.109c71.8,10.813 146.59,22.153 222.96,33.661l52.12,11.242l52.2,10.109c34.89,6.848 69.69,13.617 104.41,20.391c69.52,13.449 138.77,27.949 208.2,40.867c-4.04,2.281 -6.15,4.66 7.64,7.82c57.74,10.992 138.51,20.571 221.91,32.61c12.3,2.281 24.52,4.66 36.56,6.941c9.32,3.07 11.43,5.969 12.75,7.809c37.78,5.371 71.36,10.382 102.64,13.101c102.48,16.442 205.3,32.871 308.92,49.481c42.7,7.3 85.68,12.75 128.92,18.371l-21.71,116.004l-9.31,51.324z" id="path114"/>
        </clipPath>
        <clipPath clipPathUnits="userSpaceOnUse" id="clipPath134">
            <path d="m2874.44,1217.23c1.19,-0.11 2.25,-0.22 3.05,-0.3c4.81,-0.03 1.88,-0.12 -3.05,0.3z" id="path132"/>
        </clipPath>
        <linearGradient x1="0.807248" y1="1.691174" x2="0.416594" y2="-0.15041" spreadMethod="pad" id="linearGradient124">
            <stop stop-color="#6b1317" offset="0" id="stop118"/>
            <stop stop-color="#e11d25" offset="0.55303" id="stop120"/>
            <stop stop-color="#efee0e" offset="1" id="stop122"/>
        </linearGradient>
    </defs>
    <g>
        <title>background</title>
        <rect fill="none" id="canvas_background" height="18" width="18" y="-1" x="-1"/>
    </g>
    <g>
        <title>Layer 1</title>
        <g id="g10" transform="matrix(0.0476929126262809,0,0,-0.08162649992285177,-5.225599404407664,13.45271377171341) ">
            <g id="g12" transform="translate(-7.929192543029785,-5.25) scale(0.10000000149011612) ">
                <g id="g104">
                    <g id="g106" clip-path="url(#clipPath110)">
                        <g id="g112" clip-path="url(#clipPath116)">
                            <path fill="url(#linearGradient124)" fill-rule="nonzero" d="m1022.732959,-346.366456l0,1l1,0l0,1l1,0l0,1l1,0l0,1l2,0l0,1l1,0l0,1l1,0l0,1l2,0l0,1l1,0l0,1l1,0l0,1l2,0l0,1l1,0l0,1l1,0l0,1l2,0l0,1l1,0l0,1l1,0l0,1l2,0l0,1l1,0l0,1l1,0l0,1l2,0l0,1l1,0l0,1l2,0l0,1l1,0l0,1l1,0l0,1l2,0l0,1l1,0l0,1l1,0l0,1l2,0l0,1l1,0l0,1l1,0l0,1l2,0l0,1l1,0l0,1l1,0l0,1l2,0l0,1l1,0l0,1l1,0l0,1l2,0l0,1l1,0l0,1l1,0l0,1l2,0l0,1l1,0l0,1l2,0l0,1l1,0l0,1l1,0l0,1l2,0l0,1l1,0l0,1l1,0l0,1l2,0l0,1l1,0l0,1l1,0l0,1l2,0l0,1l1,0l0,1l1,0l0,1l2,0l0,1l1,0l0,1l1,0l0,1l2,0l0,1l1,0l0,1l1,0l0,1l2,0l0,1l1,0l0,1l2,0l0,1l1,0l0,1l1,0l0,1l2,0l0,1l1,0l0,1l1,0l0,1l2,0l0,1l1,0l0,1l1,0l0,1l2,0l0,1l1,0l0,1l1,0l0,1l2,0l0,1l1,0l0,1l1,0l0,1l2,0l0,1l1,0l0,1l2,0l0,1l1,0l0,1l1,0l0,1l2,0l0,1l1,0l0,1l1,0l0,1l2,0l0,1l1,0l0,1l1,0l0,1l2,0l0,1l1,0l0,1l1,0l0,1l2,0l0,1l1,0l0,1l1,0l0,1l2,0l0,1l1,0l0,1l1,0l0,1l2,0l0,1l1,0l0,1l2,0l0,1l1,0l0,1l1,0l0,1l2,0l0,1l1,0l0,1l1,0l0,1l1,0l0,1l2,0l0,1l1,0l0,1l1,0l0,1l2,0l0,1l1,0l0,1l1,0l0,1l2,0l0,1l1,0l0,1l1,0l0,1l2,0l0,1l1,0l0,1l1,0l0,1l2,0l0,1l1,0l0,1l1,0l0,1l2,0l0,1l1,0l0,1l1,0l0,1l2,0l0,1l1,0l0,1l1,0l0,1l2,0l0,1l1,0l0,1l1,0l0,1l2,0l0,1l1,0l0,1l1,0l0,1l2,0l0,1l1,0l0,1l1,0l0,1l2,0l0,1l1,0l0,1l1,0l0,1l2,0l0,1l1,0l0,1l1,0l0,1l2,0l0,1l1,0l0,1l1,0l0,1l2,0l0,1l1,0l0,1l1,0l0,1l2,0l0,1l1,0l0,1l1,0l0,1l2,0l0,1l1,0l0,1l2,0l0,1l1,0l0,1l1,0l0,1l2,0l0,1l1,0l0,1l1,0l0,1l2,0l0,1l1,0l0,1l1,0l0,1l2,0l0,1l1,0l0,1l1,0l0,1l2,0l0,1l1,0l0,1l1,0l0,1l2,0l0,1l1,0l0,1l1,0l0,1l2,0l0,1l1,0l0,1l2,0l0,1l1,0l0,1l1,0l0,1l2,0l0,1l1,0l0,1l1,0l0,1l1,0l0,1l2,0l0,1l1,0l0,1l1,0l0,1l2,0l0,1l1,0l0,1l1,0l0,1l2,0l0,1l1,0l0,1l1,0l0,1l1,0l0,1l2,0l0,1l1,0l0,1l1,0l0,1l2,0l0,1l1,0l0,1l1,0l0,1l1,0l0,1l2,0l0,1l1,0l0,1l1,0l0,1l1,0l0,1l1,0l0,1l2,0l0,1l1,0l0,1l1,0l0,1l1,0l0,1l1,0l0,1l2,0l0,1l1,0l0,1l1,0l0,1l1,0l0,1l1,0l0,1l1,0l0,1l2,0l0,1l1,0l0,1l1,0l0,1l1,0l0,1l1,0l0,1l1,0l0,1l1,0l0,1l1,0l0,1l1,0l0,1l1,0l0,1l1,0l0,1l1,0l0,1l1,0l0,1l1,0l0,1l1,0l0,1l1,0l0,1l1,0l0,1l1,0l0,1l2,0l0,1l1,0l0,1l1,0l0,1l2,0l0,1l1,0l0,1l1,0l0,1l2,0l0,1l1,0l0,1l1,0l0,1l1,0l0,1l2,0l0,1l1,0l0,1l1,0l0,1l2,0l0,1l1,0l0,1l1,0l0,1l2,0l0,1l1,0l0,1l1,0l0,1l2,0l0,1l1,0l0,1l1,0l0,1l2,0l0,1l1,0l0,1l1,0l0,1l2,0l0,1l1,0l0,1l2,0l0,1l1,0l0,1l1,0l0,1l2,0l0,1l1,0l0,1l1,0l0,1l2,0l0,1l1,0l0,1l1,0l0,1l2,0l0,1l1,0l0,1l1,0l0,1l2,0l0,1l1,0l0,1l1,0l0,1l2,0l0,1l1,0l0,1l2,0l0,1l1,0l0,1l1,0l0,1l2,0l0,1l1,0l0,1l1,0l0,1l2,0l0,1l1,0l0,1l2,0l0,1l1,0l0,1l1,0l0,1l2,0l0,1l1,0l0,1l2,0l0,1l1,0l0,1l2,0l0,1l1,0l0,1l2,0l0,1l1,0l0,1l1,0l0,1l2,0l0,1l1,0l0,1l2,0l0,1l1,0l0,1l2,0l0,1l1,0l0,1l2,0l0,1l1,0l0,1l1,0l0,1l2,0l0,1l1,0l0,1l2,0l0,1l-1,0l0,2l1,0l0,1l1,0l0,1l1,0l0,1l1,0l0,1l1,0l0,1l1,0l0,1l1,0l0,1l2,0l0,1l1,0l0,1l1,0l0,1l1,0l0,1l1,0l0,1l1,0l0,1l2,0l0,1l1,0l0,1l1,0l0,1l1,0l0,1l2,0l0,1l1,0l0,1l1,0l0,1l1,0l0,1l1,0l0,1l2,0l0,1l1,0l0,1l1,0l0,1l1,0l0,1l2,0l0,1l1,0l0,1l1,0l0,1l1,0l0,1l2,0l0,1l1,0l0,1l1,0l0,1l1,0l0,1l2,0l0,1l1,0l0,1l1,0l0,1l1,0l0,1l2,0l0,1l1,0l0,1l1,0l0,1l1,0l0,1l2,0l0,1l1,0l0,1l1,0l0,1l1,0l0,1l2,0l0,1l1,0l0,1l1,0l0,1l1,0l0,1l2,0l0,1l1,0l0,1l1,0l0,1l1,0l0,1l2,0l0,1l1,0l0,1l1,0l0,1l1,0l0,1l1,0l0,1l2,0l0,1l1,0l0,1l1,0l0,1l1,0l0,1l2,0l0,1l1,0l0,1l1,0l0,1l1,0l0,1l1,0l0,1l2,0l0,1l1,0l0,1l1,0l0,1l1,0l0,1l1,0l0,1l2,0l0,1l1,0l0,1l1,0l0,1l1,0l0,1l1,0l0,1l2,0l0,1l1,0l0,1l1,0l0,1l1,0l0,1l-36,0l0,1l-12,0l0,1l-5,0l0,1l-3,0l0,1l-2,0l0,1l-2,0l0,2l-1,0l0,5l1,0l0,1l1,0l0,2l1,0l0,1l1,0l0,1l1,0l0,1l2,0l0,1l1,0l0,1l1,0l0,1l1,0l0,1l2,0l0,1l2,0l0,1l1,0l0,1l2,0l0,1l1,0l0,1l2,0l0,1l2,0l0,1l1,0l0,1l2,0l0,1l2,0l0,1l2,0l0,1l2,0l0,1l2,0l0,1l2,0l0,1l2,0l0,1l2,0l0,1l2,0l0,1l2,0l0,1l2,0l0,1l2,0l0,1l2,0l0,1l2,0l0,1l2,0l0,1l2,0l0,1l2,0l0,1l2,0l0,1l2,0l0,1l3,0l0,1l2,0l0,1l2,0l0,1l2,0l0,1l2,0l0,1l3,0l0,1l2,0l0,1l2,0l0,1l2,0l0,1l3,0l0,1l2,0l0,1l2,0l0,1l3,0l0,1l2,0l0,1l2,0l0,1l2,0l0,1l2,0l0,1l2,0l0,1l2,0l0,1l2,0l0,1l2,0l0,1l2,0l0,1l3,0l0,1l2,0l0,1l2,0l0,1l3,0l0,1l2,0l0,1l3,0l0,1l2,0l0,1l2,0l0,1l3,0l0,1l3,0l0,1l2,0l0,1l3,0l0,1l2,0l0,1l3,0l0,1l3,0l0,1l2,0l0,1l3,0l0,1l3,0l0,1l3,0l0,1l2,0l0,1l3,0l0,1l3,0l0,1l3,0l0,1l3,0l0,1l3,0l0,1l3,0l0,1l2,0l0,1l3,0l0,1l4,0l0,1l3,0l0,1l3,0l0,1l3,0l0,1l3,0l0,1l3,0l0,1l2,0l0,1l2,0l0,1l1,0l0,1l2,0l0,1l1,0l0,1l2,0l0,1l1,0l0,1l2,0l0,1l1,0l0,1l2,0l0,1l1,0l0,1l1,0l0,1l2,0l0,1l1,0l0,1l2,0l0,1l1,0l0,1l2,0l0,1l1,0l0,1l-7,0l0,-1l-7,0l0,-1l-8,0l0,-1l-8,0l0,-1l-7,0l0,-1l-5,0l0,1l1,0l0,1l2,0l0,1l3,0l0,1l2,0l0,1l2,0l0,1l3,0l0,1l2,0l0,1l3,0l0,1l2,0l0,1l2,0l0,1l3,0l0,1l2,0l0,1l3,0l0,1l2,0l0,1l2,0l0,1l3,0l0,1l2,0l0,1l2,0l0,1l3,0l0,1l2,0l0,1l3,0l0,1l2,0l0,1l2,0l0,1l3,0l0,1l2,0l0,1l2,0l0,1l3,0l0,1l2,0l0,1l3,0l0,1l2,0l0,1l2,0l0,1l3,0l0,1l2,0l0,1l3,0l0,1l2,0l0,1l2,0l0,1l3,0l0,1l2,0l0,1l2,0l0,1l3,0l0,1l2,0l0,1l1,0l0,1l2,0l0,1l1,0l0,1l2,0l0,1l1,0l0,1l2,0l0,1l1,0l0,1l2,0l0,1l1,0l0,1l1,0l0,1l2,0l0,1l1,0l0,1l2,0l0,1l1,0l0,1l2,0l0,1l1,0l0,1l2,0l0,1l1,0l0,1l2,0l0,1l1,0l0,1l2,0l0,1l1,0l0,1l2,0l0,1l1,0l0,1l1,0l0,1l2,0l0,1l1,0l0,1l2,0l0,1l1,0l0,1l1,0l0,1l2,0l0,1l1,0l0,1l2,0l0,1l1,0l0,1l1,0l0,1l2,0l0,1l1,0l0,1l2,0l0,1l1,0l0,1l1,0l0,1l2,0l0,1l1,0l0,1l2,0l0,1l1,0l0,1l2,0l0,1l1,0l0,1l1,0l0,1l2,0l0,1l1,0l0,1l2,0l0,1l1,0l0,1l1,0l0,1l2,0l0,1l1,0l0,1l2,0l0,1l1,0l0,1l1,0l0,1l2,0l0,1l1,0l0,1l2,0l0,1l1,0l0,1l1,0l0,1l2,0l0,1l1,0l0,1l2,0l0,1l1,0l0,1l1,0l0,1l2,0l0,1l1,0l0,1l1,0l0,1l2,0l0,1l1,0l0,1l2,0l0,1l1,0l0,1l1,0l0,1l2,0l0,1l1,0l0,1l1,0l0,1l2,0l0,1l1,0l0,1l1,0l0,1l2,0l0,1l1,0l0,1l1,0l0,1l2,0l0,1l1,0l0,1l2,0l0,1l1,0l0,1l1,0l0,1l2,0l0,1l1,0l0,1l1,0l0,1l2,0l0,1l1,0l0,1l1,0l0,1l2,0l0,1l1,0l0,1l1,0l0,1l2,0l0,1l1,0l0,1l2,0l0,1l1,0l0,1l1,0l0,1l2,0l0,1l1,0l0,1l1,0l0,1l2,0l0,1l1,0l0,1l1,0l0,1l2,0l0,1l1,0l0,1l1,0l0,1l2,0l0,1l1,0l0,1l1,0l0,1l2,0l0,1l1,0l0,1l1,0l0,1l2,0l0,1l1,0l0,1l2,0l0,1l1,0l0,1l2,0l0,1l1,0l0,1l1,0l0,1l2,0l0,1l1,0l0,1l2,0l0,1l1,0l0,1l2,0l0,1l1,0l0,1l2,0l0,1l1,0l0,1l2,0l0,1l1,0l0,1l1,0l0,1l2,0l0,1l1,0l0,1l2,0l0,1l1,0l0,1l2,0l0,1l1,0l0,1l2,0l0,1l1,0l0,1l1,0l0,1l2,0l0,1l1,0l0,1l2,0l0,1l1,0l0,1l2,0l0,1l1,0l0,1l2,0l0,1l1,0l0,1l2,0l0,1l1,0l0,1l1,0l0,1l2,0l0,1l1,0l0,1l2,0l0,1l1,0l0,1l2,0l0,1l1,0l0,1l2,0l0,1l1,0l0,1l1,0l0,1l2,0l0,1l1,0l0,1l2,0l0,1l1,0l0,1l2,0l0,1l1,0l0,1l2,0l0,1l1,0l0,1l2,0l0,1l1,0l0,1l2,0l0,1l1,0l0,1l1,0l0,1l2,0l0,1l1,0l0,1l2,0l0,1l1,0l0,1l2,0l0,1l1,0l0,1l2,0l0,1l1,0l0,1l2,0l0,1l1,0l0,1l2,0l0,1l1,0l0,1l1,0l0,1l2,0l0,1l1,0l0,1l2,0l0,1l1,0l0,1l2,0l0,1l1,0l0,1l2,0l0,1l1,0l0,1l2,0l0,1l1,0l0,1l2,0l0,1l1,0l0,1l1,0l0,1l2,0l0,1l1,0l0,1l2,0l0,1l1,0l0,1l2,0l0,1l1,0l0,1l2,0l0,1l1,0l0,1l2,0l0,1l1,0l0,1l2,0l0,1l1,0l0,1l1,0l0,1l2,0l0,1l1,0l0,1l2,0l0,1l1,0l0,1l2,0l0,1l1,0l0,1l2,0l0,1l1,0l0,1l2,0l0,1l1,0l0,1l2,0l0,1l1,0l0,1l2,0l0,1l1,0l0,1l1,0l0,1l2,0l0,1l1,0l0,1l2,0l0,1l1,0l0,1l2,0l0,1l1,0l0,1l2,0l0,1l1,0l0,1l2,0l0,1l1,0l0,1l2,0l0,1l1,0l0,1l2,0l0,1l1,0l0,1l2,0l0,1l1,0l0,1l2,0l0,1l1,0l0,1l1,0l0,1l2,0l0,1l1,0l0,1l2,0l0,1l1,0l0,1l2,0l0,1l1,0l0,1l2,0l0,1l1,0l0,1l2,0l0,1l1,0l0,1l2,0l0,1l1,0l0,1l2,0l0,1l1,0l0,1l2,0l0,1l1,0l0,1l1,0l0,1l2,0l0,1l1,0l0,1l2,0l0,1l1,0l0,1l2,0l0,1l1,0l0,1l2,0l0,1l1,0l0,1l2,0l0,1l1,0l0,1l2,0l0,1l1,0l0,1l2,0l0,1l1,0l0,1l2,0l0,1l1,0l0,1l2,0l0,1l1,0l0,1l2,0l0,1l1,0l0,1l2,0l0,1l1,0l0,1l2,0l0,1l1,0l0,1l2,0l0,1l1,0l0,1l2,0l0,1l1,0l0,1l1,0l0,1l2,0l0,1l1,0l0,1l2,0l0,1l1,0l0,1l2,0l0,1l1,0l0,1l2,0l0,1l1,0l0,1l2,0l0,1l1,0l0,1l2,0l0,1l1,0l0,1l2,0l0,1l1,0l0,1l2,0l0,1l1,0l0,1l2,0l0,1l1,0l0,1l2,0l0,1l1,0l0,1l2,0l0,1l1,0l0,1l2,0l0,1l1,0l0,1l2,0l0,1l1,0l0,1l2,0l0,1l1,0l0,1l2,0l0,1l1,0l0,1l2,0l0,1l1,0l0,1l2,0l0,1l1,0l0,1l2,0l0,1l1,0l0,1l2,0l0,1l1,0l0,1l2,0l0,1l1,0l0,1l2,0l0,1l1,0l0,1l2,0l0,1l1,0l0,1l2,0l0,1l1,0l0,1l2,0l0,1l1,0l0,1l2,0l0,1l1,0l0,1l2,0l0,1l1,0l0,1l2,0l0,1l1,0l0,1l2,0l0,1l1,0l0,1l1,0l0,1l2,0l0,1l1,0l0,1l2,0l0,1l1,0l0,1l2,0l0,1l1,0l0,1l2,0l0,1l1,0l0,1l2,0l0,1l1,0l0,1l2,0l0,1l1,0l0,1l2,0l0,1l1,0l0,1l2,0l0,1l1,0l0,1l2,0l0,1l1,0l0,1l2,0l0,1l1,0l0,1l2,0l0,1l1,0l0,1l2,0l0,1l1,0l0,1l2,0l0,1l1,0l0,1l2,0l0,1l2,0l0,1l1,0l0,1l2,0l0,1l1,0l0,1l2,0l0,1l1,0l0,1l2,0l0,1l1,0l0,1l2,0l0,1l1,0l0,1l2,0l0,1l1,0l0,1l2,0l0,1l1,0l0,1l2,0l0,1l1,0l0,1l2,0l0,1l1,0l0,1l2,0l0,1l1,0l0,1l2,0l0,1l1,0l0,1l2,0l0,1l1,0l0,1l2,0l0,1l1,0l0,1l2,0l0,1l1,0l0,1l2,0l0,1l1,0l0,1l2,0l0,1l1,0l0,1l2,0l0,1l1,0l0,1l2,0l0,1l1,0l0,1l2,0l0,1l1,0l0,1l2,0l0,1l1,0l0,1l2,0l0,1l1,0l0,1l2,0l0,1l1,0l0,1l2,0l0,1l1,0l0,1l2,0l0,1l1,0l0,1l2,0l0,1l2,0l0,1l1,0l0,1l2,0l0,1l1,0l0,1l2,0l0,1l1,0l0,1l2,0l0,1l1,0l0,1l2,0l0,1l1,0l0,1l2,0l0,1l1,0l0,1l2,0l0,1l1,0l0,1l2,0l0,1l1,0l0,1l2,0l0,1l1,0l0,1l2,0l0,1l1,0l0,1l2,0l0,1l1,0l0,1l2,0l0,1l1,0l0,1l2,0l0,1l1,0l0,1l2,0l0,1l2,0l0,1l1,0l0,1l2,0l0,1l1,0l0,1l2,0l0,1l1,0l0,1l2,0l0,1l1,0l0,1l2,0l0,1l1,0l0,1l2,0l0,1l1,0l0,1l2,0l0,1l1,0l0,1l2,0l0,1l1,0l0,1l2,0l0,1l1,0l0,1l2,0l0,1l1,0l0,1l2,0l0,1l2,0l0,1l1,0l0,1l2,0l0,1l1,0l0,1l2,0l0,1l1,0l0,1l2,0l0,1l1,0l0,1l2,0l0,1l1,0l0,1l2,0l0,1l1,0l0,1l2,0l0,1l1,0l0,1l2,0l0,1l1,0l0,1l2,0l0,1l2,0l0,1l1,0l0,1l2,0l0,1l1,0l0,1l2,0l0,1l1,0l0,1l2,0l0,1l1,0l0,1l2,0l0,1l1,0l0,1l2,0l0,1l1,0l0,1l2,0l0,1l1,0l0,1l2,0l0,1l1,0l0,1l2,0l0,1l2,0l0,1l1,0l0,1l2,0l0,1l-3,0l0,1l-2,0l0,1l-2,0l0,1l-1,0l0,1l-2,0l0,1l-2,0l0,1l-2,0l0,1l-2,0l0,1l-1,0l0,1l-2,0l0,1l-2,0l0,1l-2,0l0,1l-1,0l0,1l-2,0l0,1l-2,0l0,1l-2,0l0,1l-2,0l0,1l-1,0l0,1l-2,0l0,1l-2,0l0,1l-2,0l0,1l-2,0l0,1l-1,0l0,2l-1,0l0,1l-1,0l0,1l-1,0l0,1l-1,0l0,1l-1,0l0,1l-1,0l0,1l-1,0l0,1l-1,0l0,1l-1,0l0,1l-1,0l0,2l-1,0l0,1l-1,0l0,1l-1,0l0,1l7,0l0,1l-3,0l0,1l-5,0l0,1l-2,0l0,2l-1,0l0,2l-1,0l0,1l-1,0l0,2l-1,0l0,1l1,0l0,1l13,0l0,1l-8,0l0,1l-8,0l0,2l11,0l0,1l3,0l0,-1l12,0l0,-1l8,0l0,-1l9,0l0,-1l5,0l0,1l-2,0l0,1l-2,0l0,1l-2,0l0,1l-1,0l0,1l-2,0l0,1l-1,0l0,1l-2,0l0,1l-1,0l0,1l-1,0l0,1l-1,0l0,1l-1,0l0,1l-1,0l0,4l-1,0l0,6l1,0l0,2l1,0l0,2l1,0l0,1l1,0l0,1l2,0l0,1l1,0l0,1l1,0l0,1l1,0l0,1l2,0l0,1l2,0l0,1l2,0l0,1l2,0l0,1l2,0l0,1l3,0l0,1l3,0l0,1l3,0l0,1l3,0l0,1l4,0l0,1l4,0l0,1l5,0l0,1l-10,0l0,1l-4,0l0,1l-1,0l0,5l1,0l0,1l1,0l0,2l3,0l0,1l2,0l0,1l1,0l0,-1l10,0l0,-1l4,0l0,-1l3,0l0,-1l4,0l0,-1l3,0l0,-1l3,0l0,-1l4,0l0,-1l6,0l0,1l-1,0l0,3l-2,0l0,1l-2,0l0,1l-3,0l0,1l-5,0l0,1l-10,0l0,1l-10,0l0,1l-6,0l0,1l-3,0l0,1l-2,0l0,1l-2,0l0,1l-1,0l0,1l-1,0l0,1l-1,0l0,1l-1,0l0,2l9,0l0,1l7,0l0,1l6,0l0,1l9,0l0,1l13,0l0,-1l2,0l0,1l1,0l0,4l-1,0l0,1l-2,0l0,1l-22,0l0,-1l-6,0l0,1l-5,0l0,1l-1,0l0,3l34,0l0,1l-1,0l0,1l-1,0l0,1l-1,0l0,1l-1,0l0,2l-1,0l0,1l-1,0l0,3l-1,0l0,19l-1,0l0,4l-1,0l0,2l-1,0l0,1l-1,0l0,2l-1,0l0,1l-1,0l0,1l-1,0l0,1l-1,0l0,2l-1,0l0,1l-1,0l0,1l-1,0l0,2l-1,0l0,1l-1,0l0,1l-1,0l0,1l-1,0l0,2l-1,0l0,1l-1,0l0,1l-1,0l0,2l-1,0l0,1l-1,0l0,1l-1,0l0,2l-1,0l0,1l-1,0l0,2l-1,0l0,1l-1,0l0,2l-1,0l0,2l-1,0l0,2l-1,0l0,2l-1,0l0,3l-1,0l0,9l1,0l0,2l1,0l0,1l1,0l0,2l1,0l0,1l1,0l0,1l1,0l0,1l2,0l0,1l1,0l0,1l2,0l0,1l1,0l0,1l2,0l0,1l3,0l0,1l2,0l0,1l3,0l0,1l3,0l0,1l2,0l0,1l2,0l0,1l4,0l0,1l4,0l0,1l26,0l0,-1l12,0l0,-1l3,0l0,1l-1,0l0,1l-1,0l0,1l-2,0l0,1l-1,0l0,1l-1,0l0,1l-2,0l0,1l-1,0l0,1l-1,0l0,1l-2,0l0,1l-1,0l0,1l-2,0l0,1l-1,0l0,1l-2,0l0,1l-1,0l0,1l-1,0l0,1l-2,0l0,1l-1,0l0,1l-2,0l0,1l-1,0l0,1l2,0l0,1l2,0l0,1l3,0l0,1l2,0l0,1l3,0l0,1l3,0l0,1l2,0l0,1l3,0l0,1l3,0l0,1l2,0l0,1l3,0l0,1l3,0l0,1l2,0l0,1l3,0l0,1l3,0l0,1l3,0l0,1l3,0l0,1l3,0l0,1l3,0l0,1l3,0l0,1l3,0l0,1l3,0l0,1l4,0l0,1l3,0l0,1l7,0l0,1l7,0l0,1l11,0l0,1l16,0l0,1l34,0l0,-1l22,0l0,-1l15,0l0,-1l12,0l0,-1l10,0l0,-1l9,0l0,-1l9,0l0,-1l8,0l0,-1l8,0l0,-1l9,0l0,-1l9,0l0,-1l7,0l0,-1l7,0l0,-1l7,0l0,-1l7,0l0,-1l8,0l0,-1l7,0l0,-1l8,0l0,-1l8,0l0,-1l9,0l0,-1l8,0l0,-1l9,0l0,-1l8,0l0,-1l9,0l0,-1l9,0l0,-1l7,0l0,1l2,0l0,1l1,0l0,1l2,0l0,1l2,0l0,1l2,0l0,1l1,0l0,1l2,0l0,1l2,0l0,1l2,0l0,1l1,0l0,1l2,0l0,1l2,0l0,1l2,0l0,1l1,0l0,1l2,0l0,1l2,0l0,1l2,0l0,1l1,0l0,1l2,0l0,1l2,0l0,1l2,0l0,1l1,0l0,1l2,0l0,1l2,0l0,1l2,0l0,1l1,0l0,1l2,0l0,1l2,0l0,1l2,0l0,1l1,0l0,1l2,0l0,1l2,0l0,1l2,0l0,1l1,0l0,1l2,0l0,1l2,0l0,1l2,0l0,1l1,0l0,1l2,0l0,1l2,0l0,1l2,0l0,1l1,0l0,1l2,0l0,1l2,0l0,1l2,0l0,1l1,0l0,1l2,0l0,1l2,0l0,1l2,0l0,1l2,0l0,1l2,0l0,1l2,0l0,1l2,0l0,1l3,0l0,1l2,0l0,1l2,0l0,1l2,0l0,1l3,0l0,1l2,0l0,1l2,0l0,1l2,0l0,1l3,0l0,1l2,0l0,1l2,0l0,1l2,0l0,1l3,0l0,1l2,0l0,1l2,0l0,1l2,0l0,1l2,0l0,1l3,0l0,1l2,0l0,1l2,0l0,1l2,0l0,1l3,0l0,1l2,0l0,1l2,0l0,1l3,0l0,1l2,0l0,1l2,0l0,1l3,0l0,1l2,0l0,1l2,0l0,1l3,0l0,1l2,0l0,1l2,0l0,1l2,0l0,1l3,0l0,1l2,0l0,1l2,0l0,1l3,0l0,1l2,0l0,1l2,0l0,1l3,0l0,1l2,0l0,1l2,0l0,1l3,0l0,1l2,0l0,1l2,0l0,1l3,0l0,1l2,0l0,1l2,0l0,1l3,0l0,1l2,0l0,1l2,0l0,1l1,0l0,9l1,0l0,1l1,0l0,1l2,0l0,1l2,0l0,1l1,0l0,1l2,0l0,1l2,0l0,1l2,0l0,1l1,0l0,1l2,0l0,1l2,0l0,1l2,0l0,1l2,0l0,1l2,0l0,1l2,0l0,1l2,0l0,1l2,0l0,1l2,0l0,1l2,0l0,1l2,0l0,1l2,0l0,1l2,0l0,1l3,0l0,1l2,0l0,1l2,0l0,1l3,0l0,1l2,0l0,1l2,0l0,1l3,0l0,1l2,0l0,1l3,0l0,1l2,0l0,1l3,0l0,1l3,0l0,1l2,0l0,1l3,0l0,1l2,0l0,1l3,0l0,1l2,0l0,1l3,0l0,1l2,0l0,1l3,0l0,1l2,0l0,1l3,0l0,1l2,0l0,1l2,0l0,1l3,0l0,1l2,0l0,1l3,0l0,1l2,0l0,1l2,0l0,1l2,0l0,1l2,0l0,1l2,0l0,1l2,0l0,1l3,0l0,1l2,0l0,1l2,0l0,1l2,0l0,1l2,0l0,1l2,0l0,1l1,0l0,1l2,0l0,1l2,0l0,1l2,0l0,1l1,0l0,1l2,0l0,1l2,0l0,1l1,0l0,1l2,0l0,1l2,0l0,1l1,0l0,1l1,0l0,1l1,0l0,1l1,0l0,1l1,0l0,1l1,0l0,3l-1,0l0,1l-2,0l0,1l-1,0l0,1l-1,0l0,1l-1,0l0,1l-1,0l0,1l1,0l0,1l2,0l0,1l2,0l0,1l2,0l0,1l2,0l0,1l1,0l0,1l2,0l0,1l2,0l0,1l2,0l0,1l2,0l0,1l2,0l0,1l2,0l0,1l2,0l0,1l2,0l0,1l2,0l0,1l2,0l0,1l2,0l0,1l2,0l0,1l1,0l0,1l2,0l0,1l2,0l0,1l2,0l0,1l2,0l0,1l2,0l0,1l2,0l0,1l2,0l0,1l2,0l0,1l2,0l0,1l2,0l0,1l2,0l0,1l2,0l0,1l2,0l0,1l2,0l0,1l2,0l0,1l2,0l0,1l2,0l0,1l2,0l0,1l1,0l0,1l2,0l0,1l2,0l0,1l2,0l0,1l2,0l0,1l2,0l0,1l2,0l0,1l2,0l0,1l2,0l0,1l2,0l0,1l2,0l0,1l2,0l0,1l2,0l0,1l2,0l0,1l2,0l0,1l2,0l0,1l2,0l0,1l2,0l0,1l1,0l0,1l2,0l0,1l2,0l0,1l2,0l0,1l2,0l0,1l2,0l0,1l2,0l0,1l2,0l0,1l2,0l0,1l2,0l0,1l2,0l0,1l2,0l0,1l2,0l0,1l2,0l0,1l2,0l0,1l2,0l0,1l2,0l0,1l2,0l0,1l2,0l0,1l2,0l0,1l2,0l0,1l2,0l0,1l2,0l0,1l2,0l0,1l2,0l0,1l2,0l0,1l2,0l0,1l2,0l0,1l2,0l0,1l2,0l0,1l2,0l0,1l2,0l0,1l2,0l0,1l2,0l0,1l2,0l0,1l2,0l0,1l2,0l0,1l2,0l0,1l2,0l0,1l2,0l0,1l2,0l0,1l2,0l0,1l2,0l0,1l2,0l0,1l2,0l0,1l2,0l0,1l2,0l0,1l2,0l0,1l2,0l0,1l2,0l0,1l2,0l0,1l2,0l0,1l2,0l0,1l2,0l0,1l2,0l0,1l2,0l0,1l2,0l0,1l2,0l0,1l2,0l0,1l2,0l0,1l2,0l0,1l2,0l0,1l2,0l0,1l2,0l0,1l2,0l0,1l2,0l0,1l2,0l0,1l2,0l0,1l2,0l0,1l2,0l0,1l2,0l0,1l-26,0l0,1l-5,0l0,4l1,0l0,3l1,0l0,5l-1,0l0,1l-2,0l0,1l-2,0l0,1l-3,0l0,1l-9,0l0,1l-18,0l0,-1l-9,0l0,-1l-7,0l0,-1l-6,0l0,-1l-6,0l0,-1l-7,0l0,-1l-6,0l0,-1l-9,0l0,-1l-26,0l0,1l-6,0l0,1l-1,0l0,3l-1,0l0,4l-1,0l0,2l-7,0l0,-1l-9,0l0,-1l-8,0l0,-1l-9,0l0,-1l-9,0l0,-1l-8,0l0,-1l-9,0l0,-1l-8,0l0,-1l-8,0l0,-1l-9,0l0,-1l-8,0l0,-1l-7,0l0,1l-19,0l0,1l-18,0l0,1l-17,0l0,1l-17,0l0,1l-17,0l0,1l-16,0l0,1l-16,0l0,1l-16,0l0,1l-16,0l0,1l-17,0l0,1l-6,0l0,2l1,0l0,3l-1,0l0,1l-1,0l0,1l-3,0l0,1l-17,0l0,1l-14,0l0,-1l-39,0l0,-1l-30,0l0,1l-10,0l0,1l-1,0l0,1l-2,0l0,2l-1,0l0,1l-1,0l0,2l-21,0l0,-1l-17,0l0,-1l-9,0l0,1l-11,0l0,1l-10,0l0,1l-11,0l0,1l-10,0l0,1l-11,0l0,1l-11,0l0,1l-11,0l0,1l-11,0l0,1l-11,0l0,1l-11,0l0,1l-11,0l0,1l-12,0l0,1l-12,0l0,1l-12,0l0,1l-12,0l0,1l-12,0l0,1l-12,0l0,1l-12,0l0,1l-14,0l0,1l-13,0l0,1l-13,0l0,1l-13,0l0,1l-14,0l0,1l-15,0l0,1l-15,0l0,1l-15,0l0,1l-15,0l0,1l-17,0l0,1l-17,0l0,1l-17,0l0,1l-17,0l0,1l-21,0l0,1l-21,0l0,1l-21,0l0,1l-23,0l0,1l-25,0l0,1l-28,0l0,1l-14,0l0,1l-10,0l0,1l-10,0l0,1l-11,0l0,1l-11,0l0,1l-12,0l0,1l-16,0l0,1l-17,0l0,1l-45,0l0,-1l-16,0l0,-1l-14,0l0,-1l-12,0l0,-1l-11,0l0,-1l-10,0l0,-1l-10,0l0,-1l-9,0l0,-1l-10,0l0,-1l-9,0l0,-1l-9,0l0,-1l-9,0l0,-1l-9,0l0,-1l-10,0l0,-1l-9,0l0,-1l-10,0l0,-1l-11,0l0,-1l-2,0l0,5l-1,0l0,1l-1,0l0,1l-1,0l0,1l-1,0l0,1l-2,0l0,1l-1,0l0,1l-2,0l0,1l-3,0l0,1l-3,0l0,1l-3,0l0,1l-3,0l0,1l-4,0l0,1l-4,0l0,1l-5,0l0,1l-5,0l0,1l-5,0l0,1l-5,0l0,1l-6,0l0,1l-5,0l0,1l-6,0l0,1l-5,0l0,1l-5,0l0,1l-5,0l0,1l-5,0l0,1l-4,0l0,1l-3,0l0,1l-3,0l0,1l-3,0l0,1l-3,0l0,1l-2,0l0,1l-2,0l0,1l-1,0l0,1l-1,0l0,1l-1,0l0,1l-1,0l0,6l1,0l0,1l1,0l0,1l-3,0l0,-1l-9,0l0,-1l-8,0l0,-1l-9,0l0,-1l-9,0l0,-1l-9,0l0,-1l-10,0l0,-1l-12,0l0,-1l-25,0l0,1l-3,0l0,2l-1,0l0,1l-1,0l0,1l-1,0l0,2l-1,0l0,1l-1,0l0,1l-1,0l0,1l-2,0l0,1l-1,0l0,1l-1,0l0,1l-1,0l0,1l-2,0l0,1l-2,0l0,1l-1,0l0,1l-2,0l0,1l-2,0l0,1l-2,0l0,1l-3,0l0,1l-2,0l0,1l-3,0l0,1l-3,0l0,1l-3,0l0,1l-4,0l0,1l-4,0l0,1l-5,0l0,1l-5,0l0,1l-7,0l0,1l-8,0l0,1l-12,0l0,1l-63,0l0,-1l-8,0l0,-1l-7,0l0,-1l-6,0l0,-1l-7,0l0,-1l-5,0l0,-1l-6,0l0,-1l-5,0l0,-1l-5,0l0,-1l-5,0l0,-1l-5,0l0,-1l-5,0l0,-1l-5,0l0,-1l-5,0l0,-1l-5,0l0,-1l-5,0l0,-1l-6,0l0,-1l-6,0l0,-1l-7,0l0,-1l-12,0l0,1l-1,0l0,3l1,0l0,1l2,0l0,1l2,0l0,1l2,0l0,1l3,0l0,1l2,0l0,1l2,0l0,1l3,0l0,1l2,0l0,1l3,0l0,1l2,0l0,1l3,0l0,1l2,0l0,1l2,0l0,1l2,0l0,1l1,0l0,2l-3,0l0,2l6,0l0,1l5,0l0,1l6,0l0,1l5,0l0,1l5,0l0,1l6,0l0,1l6,0l0,1l6,0l0,1l5,0l0,1l6,0l0,1l6,0l0,1l6,0l0,1l5,0l0,1l6,0l0,1l6,0l0,1l6,0l0,1l5,0l0,1l6,0l0,1l6,0l0,1l6,0l0,1l6,0l0,1l7,0l0,1l6,0l0,1l6,0l0,1l7,0l0,1l6,0l0,1l6,0l0,1l6,0l0,1l7,0l0,1l6,0l0,1l6,0l0,1l7,0l0,1l6,0l0,1l6,0l0,1l6,0l0,1l7,0l0,1l7,0l0,1l6,0l0,1l7,0l0,1l7,0l0,1l7,0l0,1l7,0l0,1l7,0l0,1l7,0l0,1l7,0l0,1l7,0l0,1l7,0l0,1l7,0l0,1l7,0l0,1l7,0l0,1l6,0l0,1l7,0l0,1l8,0l0,1l7,0l0,1l8,0l0,1l7,0l0,1l8,0l0,1l7,0l0,1l8,0l0,1l7,0l0,1l8,0l0,1l7,0l0,1l8,0l0,1l7,0l0,1l8,0l0,1l8,0l0,1l8,0l0,1l8,0l0,1l9,0l0,1l8,0l0,1l9,0l0,1l8,0l0,1l9,0l0,1l8,0l0,1l9,0l0,1l9,0l0,1l8,0l0,1l9,0l0,1l8,0l0,1l9,0l0,1l9,0l0,1l10,0l0,1l9,0l0,1l9,0l0,1l9,0l0,1l9,0l0,1l9,0l0,1l9,0l0,1l9,0l0,1l9,0l0,1l9,0l0,1l10,0l0,1l9,0l0,1l10,0l0,1l9,0l0,1l10,0l0,1l9,0l0,1l10,0l0,1l9,0l0,1l10,0l0,1l9,0l0,1l10,0l0,1l9,0l0,1l10,0l0,1l10,0l0,1l10,0l0,1l10,0l0,1l9,0l0,1l10,0l0,1l10,0l0,1l10,0l0,1l10,0l0,1l10,0l0,1l31,0l0,1l26,0l0,1l22,0l0,1l20,0l0,1l18,0l0,1l17,0l0,1l17,0l0,1l16,0l0,1l17,0l0,1l18,0l0,1l17,0l0,1l18,0l0,1l18,0l0,1l17,0l0,1l18,0l0,1l18,0l0,1l18,0l0,1l17,0l0,1l18,0l0,1l18,0l0,1l17,0l0,1l18,0l0,1l18,0l0,1l17,0l0,1l19,0l0,1l19,0l0,1l19,0l0,1l20,0l0,1l20,0l0,1l20,0l0,1l21,0l0,1l22,0l0,1l21,0l0,1l22,0l0,1l23,0l0,1l22,0l0,1l23,0l0,1l23,0l0,1l23,0l0,1l23,0l0,1l22,0l0,1l23,0l0,1l22,0l0,1l21,0l0,1l20,0l0,1l20,0l0,1l18,0l0,1l16,0l0,1l35,0l0,1l28,0l0,1l137,0l0,-1l21,0l0,-1l15,0l0,-1l15,0l0,-1l11,0l0,-1l10,0l0,-1l10,0l0,-1l10,0l0,-1l7,0l0,-1l7,0l0,-1l8,0l0,-1l6,0l0,-1l4,0l0,-1l4,0l0,-1l4,0l0,-1l4,0l0,-1l4,0l0,-1l4,0l0,-1l3,0l0,-1l4,0l0,-1l4,0l0,-1l3,0l0,-1l4,0l0,-1l4,0l0,-1l3,0l0,-1l4,0l0,-1l4,0l0,-1l3,0l0,-1l4,0l0,-1l3,0l0,-1l3,0l0,-1l4,0l0,-1l3,0l0,-1l4,0l0,-1l3,0l0,-1l4,0l0,-1l3,0l0,-1l3,0l0,-1l4,0l0,-1l3,0l0,-1l4,0l0,-1l3,0l0,-1l3,0l0,-1l2,0l0,-1l-1,0l0,-1l-3,0l0,-1l-2,0l0,-1l-3,0l0,-1l-3,0l0,-1l-2,0l0,-1l-3,0l0,-1l-3,0l0,-1l-2,0l0,-1l-3,0l0,-1l-3,0l0,-1l-2,0l0,-1l-3,0l0,-1l-2,0l0,-1l-3,0l0,-1l-2,0l0,-1l-3,0l0,-1l-2,0l0,-1l19,0l0,1l8,0l0,-1l31,0l0,-1l11,0l0,-1l6,0l0,-1l5,0l0,-1l4,0l0,-1l2,0l0,-1l3,0l0,-1l4,0l0,-1l4,0l0,-1l3,0l0,-1l4,0l0,-1l3,0l0,-1l3,0l0,-1l2,0l0,-1l3,0l0,-1l2,0l0,-1l3,0l0,-1l1,0l0,-1l2,0l0,-1l2,0l0,-1l1,0l0,-1l2,0l0,-1l1,0l0,-2l1,0l0,-1l1,0l0,-1l1,0l0,-9l-1,0l0,-2l-1,0l0,-1l-1,0l0,-2l-1,0l0,-1l-1,0l0,-1l-1,0l0,-1l-1,0l0,-1l-1,0l0,-1l-1,0l0,-1l-1,0l0,-1l-1,0l0,-1l-2,0l0,-1l4,0l0,1l5,0l0,1l5,0l0,1l5,0l0,1l5,0l0,1l5,0l0,1l4,0l0,1l15,0l0,1l16,0l0,-1l13,0l0,-1l-1,0l0,-1l-2,0l0,-1l-2,0l0,-1l-2,0l0,-1l2,0l0,1l3,0l0,1l3,0l0,1l3,0l0,1l7,0l0,-1l5,0l0,-1l4,0l0,-2l-2,0l0,-1l-3,0l0,-1l-2,0l0,-1l-2,0l0,-1l-2,0l0,-1l-2,0l0,-1l-2,0l0,-1l-3,0l0,-1l-2,0l0,-1l-2,0l0,-1l-2,0l0,-1l2,0l0,1l3,0l0,1l2,0l0,1l3,0l0,1l2,0l0,1l3,0l0,1l3,0l0,1l2,0l0,1l3,0l0,1l2,0l0,1l2,0l0,1l3,0l0,-1l-1,0l0,-1l-1,0l0,-1l-2,0l0,-1l-2,0l0,-1l-2,0l0,-1l-2,0l0,-1l-2,0l0,-1l-2,0l0,-1l-3,0l0,-1l-2,0l0,-1l-2,0l0,-1l-2,0l0,-1l-2,0l0,-1l-2,0l0,-1l-3,0l0,-1l-2,0l0,-1l-3,0l0,-1l-2,0l0,-1l-3,0l0,-1l-2,0l0,-1l-3,0l0,-1l-2,0l0,-1l-3,0l0,-1l-2,0l0,-1l-3,0l0,-1l-2,0l0,-1l-3,0l0,-1l-2,0l0,-1l-3,0l0,-1l-2,0l0,-1l-3,0l0,-1l-3,0l0,-1l-2,0l0,-1l-3,0l0,-1l-2,0l0,-1l-3,0l0,-1l-3,0l0,-1l-2,0l0,-1l-3,0l0,-1l-2,0l0,-1l-3,0l0,-1l-2,0l0,-1l-2,0l0,-1l-3,0l0,-1l-2,0l0,-1l2,0l0,1l5,0l0,1l4,0l0,1l6,0l0,1l6,0l0,1l19,0l0,-1l3,0l0,-1l1,0l0,-2l1,0l0,-3l-1,0l0,-3l-1,0l0,-1l-1,0l0,-2l-1,0l0,-1l-1,0l0,-1l-1,0l0,-1l-1,0l0,-1l-1,0l0,-1l-1,0l0,-1l-1,0l0,-1l-1,0l0,-1l-1,0l0,-1l-1,0l0,-1l-1,0l0,-1l-2,0l0,-1l-1,0l0,-1l-1,0l0,-1l-2,0l0,-1l-1,0l0,-1l-1,0l0,-1l-2,0l0,-1l-1,0l0,-1l-1,0l0,-1l-2,0l0,-1l-1,0l0,-1l-2,0l0,-1l-1,0l0,-1l-1,0l0,-1l3,0l0,-1l6,0l0,-1l-1,0l0,-1l-1,0l0,-1l-1,0l0,-1l-2,0l0,-1l-3,0l0,-1l-4,0l0,-1l-6,0l0,-1l-7,0l0,-1l-2,0l0,-1l4,0l0,-1l6,0l0,-1l3,0l0,-1l2,0l0,-1l1,0l0,-1l1,0l0,-2l1,0l0,-3l-1,0l0,-1l-3,0l0,-1l-16,0l0,-1l1,0l0,-1l6,0l0,-1l5,0l0,-1l5,0l0,-1l5,0l0,-1l4,0l0,-1l4,0l0,-1l4,0l0,-1l4,0l0,-1l3,0l0,-1l3,0l0,-1l3,0l0,-1l3,0l0,-1l2,0l0,-1l3,0l0,-1l2,0l0,-1l1,0l0,-1l2,0l0,-1l2,0l0,-1l1,0l0,-1l1,0l0,-1l1,0l0,-1l1,0l0,-1l1,0l0,-7l-1,0l0,-2l-1,0l0,-1l-1,0l0,-1l-2,0l0,-1l-1,0l0,-1l-2,0l0,-1l-2,0l0,-1l-2,0l0,-1l-2,0l0,-1l-3,0l0,-1l-3,0l0,-1l-3,0l0,-1l-4,0l0,-1l-4,0l0,-1l15,0l0,1l19,0l0,1l41,0l0,-1l5,0l0,-2l-22,0l0,-2l18,0l0,-2l-1,0l0,-1l-1,0l0,-1l-1,0l0,-1l-1,0l0,-1l-1,0l0,-1l-1,0l0,-1l-1,0l0,-1l-7,0l0,-1l-9,0l0,-1l11,0l0,-2l-2,0l0,-1l-1,0l0,-1l-2,0l0,-1l-1,0l0,-1l-2,0l0,-1l-1,0l0,-1l-2,0l0,-1l-1,0l0,-1l-2,0l0,-1l-2,0l0,-1l-1,0l0,-1l-2,0l0,-1l-2,0l0,-1l-1,0l0,-1l-2,0l0,-1l-2,0l0,-1l-4,0l0,-1l-3,0l0,-1l-3,0l0,-1l-4,0l0,-1l-3,0l0,-1l-3,0l0,-1l-3,0l0,-1l-3,0l0,-1l-3,0l0,-1l-3,0l0,-1l-3,0l0,-1l-3,0l0,-1l-4,0l0,-1l-3,0l0,-1l-3,0l0,-1l-3,0l0,-1l-3,0l0,-1l5,0l0,-1l5,0l0,-1l3,0l0,-1l3,0l0,-1l2,0l0,-1l1,0l0,-1l1,0l0,-1l1,0l0,-2l1,0l0,-3l-1,0l0,-3l-1,0l0,-2l-1,0l0,-2l-1,0l0,-1l-1,0l0,-1l-1,0l0,-1l-1,0l0,-1l-1,0l0,-1l-1,0l0,-1l-1,0l0,-1l-1,0l0,-1l-1,0l0,-1l-1,0l0,-1l-1,0l0,-1l-2,0l0,-1l-1,0l0,-1l-1,0l0,-1l-2,0l0,-1l-1,0l0,-1l-1,0l0,-1l-2,0l0,-1l-1,0l0,-1l-2,0l0,-1l-1,0l0,-1l-1,0l0,-1l-2,0l0,-1l-1,0l0,-1l-2,0l0,-1l-2,0l0,-1l-1,0l0,-1l-2,0l0,-1l-1,0l0,-1l-2,0l0,-1l-1,0l0,-1l-2,0l0,-1l-2,0l0,-1l-1,0l0,-1l-2,0l0,-1l-2,0l0,-1l-1,0l0,-1l-1,0l0,-1l-2,0l0,-1l-1,0l0,-1l-2,0l0,-1l-1,0l0,-1l-2,0l0,-1l-1,0l0,-1l-2,0l0,-1l-2,0l0,-1l-2,0l0,-1l-1,0l0,-1l-2,0l0,-1l-2,0l0,-1l-2,0l0,-1l-2,0l0,-1l-2,0l0,-1l-2,0l0,-1l-2,0l0,-1l-2,0l0,-1l-2,0l0,-1l-3,0l0,-1l-2,0l0,-1l-2,0l0,-1l-2,0l0,-1l-2,0l0,-1l-3,0l0,-1l-2,0l0,-1l-2,0l0,-1l-2,0l0,-1l-3,0l0,-1l-2,0l0,-1l-2,0l0,-1l-3,0l0,-1l-2,0l0,-1l-3,0l0,-1l-2,0l0,-1l-2,0l0,-1l-3,0l0,-1l-2,0l0,-1l-3,0l0,-1l-2,0l0,-1l-2,0l0,-1l-3,0l0,-1l-2,0l0,-1l-3,0l0,-1l-2,0l0,-1l-3,0l0,-1l-2,0l0,-1l-3,0l0,-1l-2,0l0,-1l-3,0l0,-1l-2,0l0,-1l7,0l0,1l7,0l0,1l8,0l0,1l7,0l0,1l7,0l0,1l7,0l0,1l7,0l0,1l7,0l0,1l7,0l0,-1l-2,0l0,-1l-1,0l0,-1l-2,0l0,-1l-1,0l0,-1l-2,0l0,-1l-1,0l0,-1l-2,0l0,-1l-1,0l0,-1l-2,0l0,-1l-1,0l0,-1l-2,0l0,-1l-2,0l0,-1l-1,0l0,-1l-2,0l0,-1l-1,0l0,-1l-2,0l0,-1l-1,0l0,-1l-2,0l0,-1l-1,0l0,-1l-2,0l0,-1l-1,0l0,-1l-2,0l0,-1l-1,0l0,-1l-2,0l0,-1l-2,0l0,-1l-1,0l0,-1l-2,0l0,-1l-1,0l0,-1l-2,0l0,-1l-1,0l0,-1l-2,0l0,-1l-1,0l0,-1l-2,0l0,-1l-1,0l0,-1l-2,0l0,-1l-1,0l0,-1l-2,0l0,-1l-2,0l0,-1l-1,0l0,-1l-2,0l0,-1l-1,0l0,-1l-2,0l0,-1l-1,0l0,-1l-2,0l0,-1l-1,0l0,-1l-2,0l0,-1l-2,0l0,-1l-1,0l0,-1l-2,0l0,-1l-1,0l0,-1l-2,0l0,-1l-2,0l0,-1l-1,0l0,-1l-2,0l0,-1l-1,0l0,-1l-2,0l0,-1l-2,0l0,-1l-1,0l0,-1l-2,0l0,-1l-1,0l0,-1l-2,0l0,-1l-2,0l0,-1l-1,0l0,-1l-2,0l0,-1l-1,0l0,-1l-2,0l0,-1l-2,0l0,-1l-1,0l0,-1l-2,0l0,-1l-1,0l0,-1l-2,0l0,-1l-2,0l0,-1l-1,0l0,-1l-2,0l0,-1l-1,0l0,-1l-2,0l0,-1l-2,0l0,-1l-1,0l0,-1l-2,0l0,-1l-1,0l0,-1l-2,0l0,-1l-2,0l0,-1l-1,0l0,-1l-2,0l0,-1l-2,0l0,-1l-1,0l0,-1l-2,0l0,-1l-2,0l0,-1l-2,0l0,-1l-1,0l0,-1l-2,0l0,-1l-2,0l0,-1l-2,0l0,-1l-2,0l0,-1l-2,0l0,-1l-2,0l0,-1l-2,0l0,-1l-2,0l0,-1l-1,0l0,-1l-2,0l0,-1l-2,0l0,-1l-2,0l0,-1l-2,0l0,-1l-2,0l0,-1l-2,0l0,-1l-2,0l0,-1l-2,0l0,-1l-2,0l0,-1l-2,0l0,-1l-2,0l0,-1l-2,0l0,-1l-2,0l0,-1l-2,0l0,-1l-2,0l0,-1l-2,0l0,-1l-2,0l0,-1l-2,0l0,-1l-2,0l0,-1l-2,0l0,-1l-2,0l0,-1l-2,0l0,-1l-2,0l0,-1l-2,0l0,-1l-2,0l0,-1l-2,0l0,-1l-2,0l0,-1l-2,0l0,-1l-2,0l0,-1l-2,0l0,-1l-2,0l0,-1l-3,0l0,-1l-2,0l0,-1l-2,0l0,-1l-2,0l0,-1l-2,0l0,-1l-2,0l0,-1l-3,0l0,-1l-2,0l0,-1l-2,0l0,-1l-2,0l0,-1l-2,0l0,-1l-2,0l0,-1l-2,0l0,-1l-3,0l0,-1l-2,0l0,-1l-2,0l0,-1l-2,0l0,-1l-2,0l0,-1l-2,0l0,-1l-3,0l0,-1l-2,0l0,-1l-2,0l0,-1l-2,0l0,-1l-2,0l0,-1l-2,0l0,-1l-3,0l0,-1l-2,0l0,-1l-2,0l0,-1l-2,0l0,-1l-3,0l0,-1l-2,0l0,-1l-2,0l0,-1l-2,0l0,-1l-3,0l0,-1l-2,0l0,-1l-2,0l0,-1l-2,0l0,-1l-3,0l0,-1l-2,0l0,-1l-2,0l0,-1l-2,0l0,-1l-3,0l0,-1l-2,0l0,-1l-2,0l0,-1l-3,0l0,-1l-2,0l0,-1l-2,0l0,-1l-3,0l0,-1l-2,0l0,-1l-2,0l0,-1l-2,0l0,-1l-3,0l0,-1l-2,0l0,-1l-2,0l0,-1l-3,0l0,-1l-2,0l0,-1l-2,0l0,-1l-3,0l0,-1l-2,0l0,-1l-2,0l0,-1l-3,0l0,-1l-2,0l0,-1l-2,0l0,-1l-3,0l0,-1l-2,0l0,-1l-2,0l0,-1l-3,0l0,-1l-2,0l0,-1l-2,0l0,-1l-3,0l0,-1l-2,0l0,-1l-3,0l0,-1l-2,0l0,-1l-2,0l0,-1l-3,0l0,-1l-2,0l0,-1l-2,0l0,-1l-3,0l0,-1l-2,0l0,-1l-3,0l0,-1l-2,0l0,-1l-2,0l0,-1l-3,0l0,-1l-2,0l0,-1l-2,0l0,-1l-3,0l0,-1l-2,0l0,-1l-3,0l0,-1l-2,0l0,-1l-2,0l0,-1l-3,0l0,-1l-2,0l0,-1l-3,0l0,-1l-2,0l0,-1l-3,0l0,-1l-2,0l0,-1l-3,0l0,-1l-2,0l0,-1l-2,0l0,-1l-3,0l0,-1l-2,0l0,-1l-3,0l0,-1l-2,0l0,-1l-3,0l0,-1l-2,0l0,-1l-2,0l0,-1l-3,0l0,-1l-2,0l0,-1l-3,0l0,-1l-2,0l0,-1l-3,0l0,-1l-2,0l0,-1l-3,0l0,-1l-2,0l0,-1l-3,0l0,-1l-2,0l0,-1l-3,0l0,-1l-2,0l0,-1l-3,0l0,-1l-2,0l0,-1l-3,0l0,-1l-2,0l0,-1l-3,0l0,-1l-2,0l0,-1l-3,0l0,-1l-2,0l0,-1l-3,0l0,-1l-2,0l0,-1l-3,0l0,-1l-2,0l0,-1l-2,0l0,-1l-3,0l0,-1l4,0l0,-1l9,0l0,-1l8,0l0,-1l9,0l0,-1l8,0l0,-1l9,0l0,-1l8,0l0,-1l9,0l0,-1l8,0l0,-1l9,0l0,-1l8,0l0,-1l9,0l0,-1l8,0l0,-1l9,0l0,-1l8,0l0,-1l9,0l0,-1l8,0l0,-1l9,0l0,-1l8,0l0,-1l9,0l0,-1l8,0l0,-1l8,0l0,-1l9,0l0,-1l8,0l0,-1l9,0l0,-1l8,0l0,-1l9,0l0,-1l8,0l0,-1l9,0l0,-1l8,0l0,-1l8,0l0,-1l8,0l0,-1l8,0l0,-1l8,0l0,-1l8,0l0,-1l8,0l0,-1l8,0l0,-1l8,0l0,-1l8,0l0,-1l7,0l0,-1l8,0l0,-1l8,0l0,-1l8,0l0,-1l8,0l0,-1l8,0l0,-1l8,0l0,-1l8,0l0,-1l8,0l0,-1l8,0l0,-1l8,0l0,-1l8,0l0,-1l8,0l0,-1l8,0l0,-1l8,0l0,-1l8,0l0,-1l8,0l0,-1l7,0l0,-1l8,0l0,-1l8,0l0,-1l8,0l0,-1l8,0l0,-1l8,0l0,-1l7,0l0,-1l4,0l0,-1l-6,0l0,1l-10,0l0,1l-9,0l0,1l-10,0l0,1l-10,0l0,1l-10,0l0,1l-10,0l0,1l-14,0l0,1l-17,0l0,1l-31,0l0,-1l-9,0l0,-1l-4,0l0,-1l-3,0l0,-1l-5,0l0,-1l-15,0l0,1l-36,0l0,1l-1,0l0,-2l-1,0l0,-1l-2,0l0,-1l-4,0l0,-1l-6,0l0,-1l-7,0l0,-1l-7,0l0,-1l-7,0l0,-1l-6,0l0,-1l-6,0l0,-1l-5,0l0,-1l-4,0l0,-1l-4,0l0,-1l-2,0l0,-1l-2,0l0,-2l-11,0l0,-1l-49,0l0,-1l-34,0l0,-1l-19,0l0,-1l-10,0l0,-1l-7,0l0,-1l-8,0l0,-1l-8,0l0,-1l-6,0l0,-1l-6,0l0,-1l-6,0l0,-1l-6,0l0,-1l-6,0l0,-1l-6,0l0,-1l-6,0l0,-1l-8,0l0,-1l-8,0l0,-1l-7,0l0,-1l-7,0l0,-1l-7,0l0,-1l-7,0l0,-1l-7,0l0,-1l-7,0l0,-1l-6,0l0,-1l-7,0l0,-1l-7,0l0,-1l-7,0l0,-1l-6,0l0,-1l-6,0l0,-1l-6,0l0,-1l-5,0l0,-1l-6,0l0,-1l-6,0l0,-1l-6,0l0,-1l-6,0l0,-1l-6,0l0,-1l-6,0l0,-1l-6,0l0,-1l-6,0l0,-1l-6,0l0,-1l-5,0l0,-1l-6,0l0,-1l-5,0l0,-1l-5,0l0,-1l-5,0l0,-1l-5,0l0,-1l-6,0l0,-1l-5,0l0,-1l-5,0l0,-1l-5,0l0,-1l-5,0l0,-1l-5,0l0,-1l-6,0l0,-1l-5,0l0,-1l-5,0l0,-1l-5,0l0,-1l-5,0l0,-1l-5,0l0,-1l-4,0l0,-1l-5,0l0,-1l-5,0l0,-1l-5,0l0,-1l-4,0l0,-1l-5,0l0,-1l-5,0l0,-1l-5,0l0,-1l-4,0l0,-1l-5,0l0,-1l-5,0l0,-1l-4,0l0,-1l-5,0l0,-1l-4,0l0,-1l-17,0l0,-1l-11,0l0,-1l-1,0l0,-2l-1,0l0,-1l-1,0l0,-1l-1,0l0,-1l-4,0l0,-1l-4,0l0,-1l-13,0l0,-1l-18,0l0,-1l-12,0l0,-1l-8,0l0,-1l-6,0l0,-1l-2,0l0,-1l-1,0l0,-5l-4,0l0,-1l-6,0l0,-1l-6,0l0,-1l-6,0l0,-1l-6,0l0,-1l-5,0l0,-1l-6,0l0,-1l-6,0l0,-1l-6,0l0,-1l-6,0l0,-1l-6,0l0,-1l-4,0l0,-1l-2,0l0,-1l-2,0l0,-1l-2,0l0,-1l-3,0l0,-1l-2,0l0,-1l-2,0l0,-1l-2,0l0,-1l-3,0l0,-1l-2,0l0,-1l-2,0l0,-1l-2,0l0,-1l-3,0l0,-1l-2,0l0,-1l-2,0l0,-1l-2,0l0,-1l-2,0l0,-1l-3,0l0,-1l-2,0l0,-1l-2,0l0,-1l-2,0l0,-1l-3,0l0,-1l-2,0l0,-1l-2,0l0,-1l-2,0l0,-1l-3,0l0,-1l-2,0l0,-1l-2,0l0,-1l-2,0l0,-1l-2,0l0,-1l-3,0l0,-1l-2,0l0,-1l-2,0l0,-1l-2,0l0,-1l-2,0l0,-1l-3,0l0,-1l-2,0l0,-1l-2,0l0,-1l-2,0l0,-1l-2,0l0,-1l-3,0l0,-1l-2,0l0,-1l-2,0l0,-1l-2,0l0,-1l-2,0l0,-1l-3,0l0,-1l-2,0l0,-1l-2,0l0,-1l-2,0l0,-1l-2,0l0,-1l-3,0l0,-1l-2,0l0,-1l-2,0l0,-1l-2,0l0,-1l-3,0l0,-1l-2,0l0,-1l-2,0l0,-1l-2,0l0,-1l-2,0l0,-1l-2,0l0,-1l-3,0l0,-1l-2,0l0,-1l-2,0l0,-1l-2,0l0,-1l-2,0l0,-1l-2,0l0,-1l-3,0l0,-1l-2,0l0,-1l-2,0l0,-1l-2,0l0,-1l-2,0l0,-1l-2,0l0,-1l-3,0l0,-1l-2,0l0,-1l-2,0l0,-1l-2,0l0,-1l-2,0l0,-1l-2,0l0,-1l-3,0l0,-1l-2,0l0,-1l-2,0l0,-1l-2,0l0,-1l-2,0l0,-1l-2,0l0,-1l-3,0l0,-1l-2,0l0,-1l-2,0l0,-1l-2,0l0,-1l-2,0l0,-1l-2,0l0,-1l-3,0l0,-1l-2,0l0,-1l-2,0l0,-1l-2,0l0,-1l-2,0l0,-1l-2,0l0,-1l-2,0l0,-1l-2,0l0,-1l-3,0l0,-1l-2,0l0,-1l-2,0l0,-1l-2,0l0,-1l-2,0l0,-1l-2,0l0,-1l-2,0l0,-1l-3,0l0,-1l-2,0l0,-1l-2,0l0,-1l-2,0l0,-1l-2,0l0,-1l-2,0l0,-1l-2,0l0,-1l-2,0l0,-1l-3,0l0,-1l-2,0l0,-1l-2,0l0,-1l-2,0l0,-1l-2,0l0,-1l-2,0l0,-1l-2,0l0,-1l-2,0l0,-1l-3,0l0,-1l-2,0l0,-1l-2,0l0,-1l-2,0l0,-1l-2,0l0,-1l-2,0l0,-1l-2,0l0,-1l-2,0l0,-1l-3,0l0,-1l-2,0l0,-1l-2,0l0,-1l-2,0l0,-1l-2,0l0,-1l-2,0l0,-1l-2,0l0,-1l-2,0l0,-1l-2,0l0,-1l-3,0l0,-1l-2,0l0,-1l-2,0l0,-1l-2,0l0,-1l-2,0l0,-1l-2,0l0,-1l-2,0l0,-1l-2,0l0,-1l-2,0l0,-1l-2,0l0,-1l-2,0l0,-1l-2,0l0,-1l-3,0l0,-1l-2,0l0,-1l-2,0l0,-1l-2,0l0,-1l-2,0l0,-1l-2,0l0,-1l-2,0l0,-1l-2,0l0,-1l-2,0l0,-1l-2,0l0,-1l-2,0l0,-1l-3,0l0,-1l-2,0l0,-1l-2,0l0,-1l-2,0l0,-1l-2,0l0,-1l-2,0l0,-1l-2,0l0,-1l-2,0l0,-1l-2,0l0,-1l-2,0l0,-1l-2,0l0,-1l-2,0l0,-1l-2,0l0,-1l-2,0l0,-1l-2,0l0,-1l-2,0l0,-1l-3,0l0,-1l-2,0l0,-1l-2,0l0,-1l-2,0l0,-1l-2,0l0,-1l-2,0l0,-1l-2,0l0,-1l-2,0l0,-1l-2,0l0,-1l-2,0l0,-1l-2,0l0,-1l-2,0l0,-1l-2,0l0,-1l-2,0l0,-1l-2,0l0,-1l-2,0l0,-1l-2,0l0,-1l-2,0l0,-1l-2,0l0,-1l-2,0l0,-1l-2,0l0,-1l-2,0l0,-1l-2,0l0,-1l-3,0l0,-1l-2,0l0,-1l-2,0l0,-1l-2,0l0,-1l-2,0l0,-1l-2,0l0,-1l-2,0l0,-1l-2,0l0,-1l-2,0l0,-1l-2,0l0,-1l-2,0l0,-1l-2,0l0,-1l-2,0l0,-1l-2,0l0,-1l-2,0l0,-1l-2,0l0,-1l-2,0l0,-1l-2,0l0,-1l-2,0l0,-1l-2,0l0,-1l-2,0l0,-1l-2,0l0,-1l-2,0l0,-1l-2,0l0,-1l-2,0l0,-1l-2,0l0,-1l-2,0l0,-1l-2,0l0,-1l-2,0l0,-1l-2,0l0,-1l-2,0l0,-1l-2,0l0,-1l-2,0l0,-1l-2,0l0,-1l-2,0l0,-1l-2,0l0,-1l-2,0l0,-1l-2,0l0,-1l-2,0l0,-1l-2,0l0,-1l-2,0l0,-1l-2,0l0,-1l-2,0l0,-1l-2,0l0,-1l-2,0l0,-1l-2,0l0,-1l-2,0l0,-1l-2,0l0,-1l-2,0l0,-1l-2,0l0,-1l-2,0l0,-1l-2,0l0,-1l-2,0l0,-1l-2,0l0,-1l-2,0l0,-1l-2,0l0,-1l-2,0l0,-1l-2,0l0,-1l-2,0l0,-1l-2,0l0,-1l-2,0l0,-1l-2,0l0,-1l-2,0l0,-1l-2,0l0,-1l-2,0l0,-1l-2,0l0,-1l-1,0l0,-1l-2,0l0,-1l-2,0l0,-1l-2,0l0,-1l-2,0l0,-1l-2,0l0,-1l-2,0l0,-1l-2,0l0,-1l-2,0l0,-1l-2,0l0,-1l-2,0l0,-1l-2,0l0,-1l-2,0l0,-1l-2,0l0,-1l-2,0l0,-1l-2,0l0,-1l-2,0l0,-1l-2,0l0,-1l-2,0l0,-1l-2,0l0,-1l-2,0l0,-1l-2,0l0,-1l-2,0l0,-1l-2,0l0,-1l-2,0l0,-1l-2,0l0,-1l-2,0l0,-1l-1,0l0,-1l-2,0l0,-1l-2,0l0,-1l-2,0l0,-1l-2,0l0,-1l-2,0l0,-1l-2,0l0,-1l-2,0l0,-1l-2,0l0,-1l-2,0l0,-1l-2,0l0,-1l-1,0l0,-1l-2,0l0,-1l-2,0l0,-1l-2,0l0,-1l-2,0l0,-1l-2,0l0,-1l-2,0l0,-1l-2,0l0,-1l-2,0l0,-1l-2,0l0,-1l-1,0l0,-1l-2,0l0,-1l-2,0l0,-1l-2,0l0,-1l-2,0l0,-1l-2,0l0,-1l-2,0l0,-1l-2,0l0,-1l-2,0l0,-1l-2,0l0,-1l-1,0l0,-1l-2,0l0,-1l-2,0l0,-1l-2,0l0,-1l-2,0l0,-1l-2,0l0,-1l-2,0l0,-1l-2,0l0,-1l-2,0l0,-1l-1,0l0,-1l-2,0l0,-1l-2,0l0,-1l-2,0l0,-1l-2,0l0,-1l-2,0l0,-1l-2,0l0,-1l-2,0l0,-1l-2,0l0,-1l-2,0l0,-1l-1,0l0,-1l-2,0l0,-1l-2,0l0,-1l-2,0l0,-1l-2,0l0,-1l-2,0l0,-1l-2,0l0,-1l-2,0l0,-1l-2,0l0,-1l-1,0l0,-1l-2,0l0,-1l-2,0l0,-1l-2,0l0,-1l-2,0l0,-1l-2,0l0,-1l-2,0l0,-1l-2,0l0,-1l-1,0l0,-1l-2,0l0,-1l-2,0l0,-1l-2,0l0,-1l-2,0l0,-1l-2,0l0,-1l-2,0l0,-1l-2,0l0,-1l-1,0l0,-1l-2,0l0,-1l-2,0l0,-1l-2,0l0,-1l-2,0l0,-1l-2,0l0,-1l-2,0l0,-1l-1,0l0,-1l-2,0l0,-1l-2,0l0,-1l-2,0l0,-1l-2,0l0,-1l-2,0l0,-1l-1,0l0,-1l-2,0l0,-1l-2,0l0,-1l-2,0l0,-1l-2,0l0,-1l-2,0l0,-1l-1,0l0,-1l-2,0l0,-1l-2,0l0,-1l-2,0l0,-1l-2,0l0,-1l-1,0l0,-1l-2,0l0,-1l-2,0l0,-1l-2,0l0,-1l-2,0l0,-1l-1,0l0,-1l-2,0l0,-1l-2,0l0,-1l-2,0l0,-1l-1,0l0,-1l-2,0l0,-1l-2,0l0,-1l-2,0l0,-1l-1,0l0,-1l-2,0l0,-1l-2,0l0,-1l-1,0l0,-1l-2,0l0,-1l-2,0l0,-1l-1,0l0,-1l-2,0l0,-1l-2,0l0,-1l-2,0l0,-1l-2,0l0,-1l-2,0l0,-1l-2,0l0,-1l-1,0l0,-1l-2,0l0,-1l-2,0l0,-1l-2,0l0,-1l-2,0l0,-1l-2,0l0,-1l-2,0l0,-1l-1,0l0,-1l-2,0l0,-1l-2,0l0,-1l-2,0l0,-1l-2,0l0,-1l-2,0l0,-1l-2,0l0,-1l-2,0l0,-1l-1,0l0,-1l-2,0l0,-1l3,0l0,1l3,0l0,1l4,0l0,1l3,0l0,1l4,0l0,1l4,0l0,1l3,0l0,1l4,0l0,1l3,0l0,1l4,0l0,1l3,0l0,1l4,0l0,1l3,0l0,1l4,0l0,1l4,0l0,1l3,0l0,1l4,0l0,1l3,0l0,1l4,0l0,1l4,0l0,1l4,0l0,1l4,0l0,1l4,0l0,1l4,0l0,1l4,0l0,1l4,0l0,1l3,0l0,1l4,0l0,1l4,0l0,1l4,0l0,1l4,0l0,1l4,0l0,1l4,0l0,1l4,0l0,1l4,0l0,1l5,0l0,1l4,0l0,1l4,0l0,1l5,0l0,1l4,0l0,1l4,0l0,1l5,0l0,1l4,0l0,1l4,0l0,1l4,0l0,1l5,0l0,1l4,0l0,1l4,0l0,1l4,0l0,1l5,0l0,1l4,0l0,1l4,0l0,1l5,0l0,1l4,0l0,1l4,0l0,1l4,0l0,1l5,0l0,1l4,0l0,1l4,0l0,1l5,0l0,1l4,0l0,1l5,0l0,1l4,0l0,1l5,0l0,1l4,0l0,1l4,0l0,1l5,0l0,1l4,0l0,1l5,0l0,1l4,0l0,1l5,0l0,1l4,0l0,1l4,0l0,1l5,0l0,1l4,0l0,1l5,0l0,1l4,0l0,1l4,0l0,1l5,0l0,1l5,0l0,1l5,0l0,1l4,0l0,1l5,0l0,1l5,0l0,1l5,0l0,1l4,0l0,1l5,0l0,1l5,0l0,1l5,0l0,1l4,0l0,1l5,0l0,1l5,0l0,1l5,0l0,1l4,0l0,1l5,0l0,1l5,0l0,1l5,0l0,1l5,0l0,1l5,0l0,1l5,0l0,1l6,0l0,1l5,0l0,1l5,0l0,1l5,0l0,1l6,0l0,1l5,0l0,1l5,0l0,1l5,0l0,1l6,0l0,1l5,0l0,1l6,0l0,1l6,0l0,1l6,0l0,1l5,0l0,1l5,0l0,1l5,0l0,1l5,0l0,1l5,0l0,1l4,0l0,1l5,0l0,1l6,0l0,1l5,0l0,1l6,0l0,1l6,0l0,1l5,0l0,1l6,0l0,1l5,0l0,1l6,0l0,1l6,0l0,1l5,0l0,1l6,0l0,1l5,0l0,1l6,0l0,1l6,0l0,1l5,0l0,1l6,0l0,1l6,0l0,1l5,0l0,1l6,0l0,1l5,0l0,1l6,0l0,1l5,0l0,1l5,0l0,1l6,0l0,1l5,0l0,1l5,0l0,1l6,0l0,1l5,0l0,1l6,0l0,1l6,0l0,1l5,0l0,1l6,0l0,1l6,0l0,1l6,0l0,1l6,0l0,1l7,0l0,1l7,0l0,1l6,0l0,1l6,0l0,1l6,0l0,1l6,0l0,1l7,0l0,1l6,0l0,1l6,0l0,1l6,0l0,1l6,0l0,1l6,0l0,1l7,0l0,1l6,0l0,1l6,0l0,1l6,0l0,1l6,0l0,1l7,0l0,1l6,0l0,1l6,0l0,1l6,0l0,1l6,0l0,1l7,0l0,1l6,0l0,1l6,0l0,1l6,0l0,1l7,0l0,1l6,0l0,1l6,0l0,1l6,0l0,1l6,0l0,1l7,0l0,1l6,0l0,1l6,0l0,1l6,0l0,1l6,0l0,1l7,0l0,1l6,0l0,1l6,0l0,1l6,0l0,1l6,0l0,1l7,0l0,1l6,0l0,1l6,0l0,1l6,0l0,1l6,0l0,1l7,0l0,1l6,0l0,1l7,0l0,1l7,0l0,1l7,0l0,1l7,0l0,1l7,0l0,1l7,0l0,1l7,0l0,1l7,0l0,1l7,0l0,1l7,0l0,1l8,0l0,1l7,0l0,1l7,0l0,1l7,0l0,1l7,0l0,1l8,0l0,1l7,0l0,1l7,0l0,1l7,0l0,1l8,0l0,1l7,0l0,1l7,0l0,1l7,0l0,1l8,0l0,1l7,0l0,1l7,0l0,1l8,0l0,1l7,0l0,1l7,0l0,1l8,0l0,1l7,0l0,1l7,0l0,1l7,0l0,1l8,0l0,1l7,0l0,1l7,0l0,1l8,0l0,1l7,0l0,1l7,0l0,1l7,0l0,1l8,0l0,1l7,0l0,1l7,0l0,1l7,0l0,1l7,0l0,1l7,0l0,1l8,0l0,1l7,0l0,1l7,0l0,1l8,0l0,1l7,0l0,1l7,0l0,1l8,0l0,1l9,0l0,1l9,0l0,1l9,0l0,1l9,0l0,1l8,0l0,1l9,0l0,1l9,0l0,1l9,0l0,1l9,0l0,1l9,0l0,1l9,0l0,1l9,0l0,1l9,0l0,1l8,0l0,1l9,0l0,1l9,0l0,1l9,0l0,1l9,0l0,1l9,0l0,1l8,0l0,1l9,0l0,1l9,0l0,1l9,0l0,1l8,0l0,1l9,0l0,1l9,0l0,1l9,0l0,1l9,0l0,1l8,0l0,1l9,0l0,1l9,0l0,1l9,0l0,1l9,0l0,1l8,0l0,1l9,0l0,1l9,0l0,1l10,0l0,1l10,0l0,1l11,0l0,1l10,0l0,1l10,0l0,1l10,0l0,1l11,0l0,1l10,0l0,1l10,0l0,1l11,0l0,1l10,0l0,1l11,0l0,1l10,0l0,1l11,0l0,1l10,0l0,1l11,0l0,1l11,0l0,1l10,0l0,1l11,0l0,1l11,0l0,1l11,0l0,1l11,0l0,1l11,0l0,1l11,0l0,1l11,0l0,1l11,0l0,1l11,0l0,1l12,0l0,1l11,0l0,1l11,0l0,1l12,0l0,1l12,0l0,1l12,0l0,1l11,0l0,1l12,0l0,1l12,0l0,1l12,0l0,1l13,0l0,1l12,0l0,1l12,0l0,1l13,0l0,1l13,0l0,1l13,0l0,1l13,0l0,1l13,0l0,1l12,0l0,-3l1,0l0,-5l1,0l0,-6l1,0l0,-5l1,0l0,-6l1,0l0,-5l1,0l0,-6l1,0l0,-5l1,0l0,-6l1,0l0,-5l1,0l0,-5l1,0l0,-6l1,0l0,-5l1,0l0,-5l1,0l0,-6l1,0l0,-5l1,0l0,-6l1,0l0,-5l1,0l0,-5l1,0l0,-6l1,0l0,-5l1,0l0,-5l1,0l0,-6l1,0l0,-5l1,0l0,-5l1,0l0,-6l1,0l0,-5l1,0l0,-5l1,0l0,-6l1,0l0,-5l1,0l0,-5l1,0l0,-4l-4,0l0,-1l-8,0l0,-1l-7,0l0,-1l-8,0l0,-1l-7,0l0,-1l-8,0l0,-1l-7,0l0,-1l-8,0l0,-1l-7,0l0,-1l-7,0l0,-1l-7,0l0,-1l-6,0l0,-1l-7,0l0,-1l-7,0l0,-1l-7,0l0,-1l-6,0l0,-1l-7,0l0,-1l-6,0l0,-1l-6,0l0,-1l-6,0l0,-1l-6,0l0,-1l-7,0l0,-1l-6,0l0,-1l-6,0l0,-1l-6,0l0,-1l-6,0l0,-1l-7,0l0,-1l-6,0l0,-1l-6,0l0,-1l-6,0l0,-1l-7,0l0,-1l-6,0l0,-1l-6,0l0,-1l-6,0l0,-1l-7,0l0,-1l-6,0l0,-1l-6,0l0,-1l-6,0l0,-1l-7,0l0,-1l-6,0l0,-1l-6,0l0,-1l-6,0l0,-1l-7,0l0,-1l-6,0l0,-1l-6,0l0,-1l-6,0l0,-1l-7,0l0,-1l-6,0l0,-1l-6,0l0,-1l-6,0l0,-1l-7,0l0,-1l-6,0l0,-1l-6,0l0,-1l-6,0l0,-1l-7,0l0,-1l-6,0l0,-1l-6,0l0,-1l-6,0l0,-1l-7,0l0,-1l-6,0l0,-1l-6,0l0,-1l-6,0l0,-1l-7,0l0,-1l-6,0l0,-1l-6,0l0,-1l-6,0l0,-1l-7,0l0,-1l-6,0l0,-1l-9,0l0,-1l-9,0l0,-1l-10,0l0,-1l-8,0l0,-1l-8,0l0,-1l-7,0l0,-1l-8,0l0,-1l-7,0l0,-1l-7,0l0,-1l-7,0l0,-1l-7,0l0,-1l-7,0l0,-1l-7,0l0,-1l-4,0l0,-1l-1,0l0,-1l-1,0l0,-1l-1,0l0,-1l-2,0l0,-1l-2,0l0,-1l-2,0l0,-1l-2,0l0,-1l-5,0l0,-1l-5,0l0,-1l-6,0l0,-1l-5,0l0,-1l-5,0l0,-1l-5,0l0,-1l-6,0l0,-1l-6,0l0,-1l-7,0l0,-1l-8,0l0,-1l-7,0l0,-1l-7,0l0,-1l-7,0l0,-1l-7,0l0,-1l-8,0l0,-1l-7,0l0,-1l-7,0l0,-1l-8,0l0,-1l-7,0l0,-1l-7,0l0,-1l-7,0l0,-1l-8,0l0,-1l-7,0l0,-1l-7,0l0,-1l-7,0l0,-1l-7,0l0,-1l-7,0l0,-1l-7,0l0,-1l-7,0l0,-1l-7,0l0,-1l-6,0l0,-1l-7,0l0,-1l-6,0l0,-1l-6,0l0,-1l-6,0l0,-1l-7,0l0,-1l-5,0l0,-1l-6,0l0,-1l-5,0l0,-1l-6,0l0,-1l-3,0l0,-1l-3,0l0,-1l-2,0l0,-1l-1,0l0,-2l2,0l0,-1l1,0l0,-1l-2,0l0,-1l-6,0l0,-1l-5,0l0,-1l-5,0l0,-1l-6,0l0,-1l-5,0l0,-1l-5,0l0,-1l-5,0l0,-1l-5,0l0,-1l-5,0l0,-1l-5,0l0,-1l-5,0l0,-1l-5,0l0,-1l-5,0l0,-1l-6,0l0,-1l-5,0l0,-1l-5,0l0,-1l-5,0l0,-1l-5,0l0,-1l-5,0l0,-1l-5,0l0,-1l-5,0l0,-1l-5,0l0,-1l-5,0l0,-1l-5,0l0,-1l-5,0l0,-1l-5,0l0,-1l-5,0l0,-1l-5,0l0,-1l-5,0l0,-1l-5,0l0,-1l-5,0l0,-1l-5,0l0,-1l-5,0l0,-1l-5,0l0,-1l-5,0l0,-1l-6,0l0,-1l-5,0l0,-1l-5,0l0,-1l-5,0l0,-1l-5,0l0,-1l-5,0l0,-1l-5,0l0,-1l-5,0l0,-1l-6,0l0,-1l-5,0l0,-1l-5,0l0,-1l-5,0l0,-1l-5,0l0,-1l-5,0l0,-1l-5,0l0,-1l-5,0l0,-1l-6,0l0,-1l-5,0l0,-1l-5,0l0,-1l-5,0l0,-1l-5,0l0,-1l-5,0l0,-1l-5,0l0,-1l-5,0l0,-1l-5,0l0,-1l-6,0l0,-1l-5,0l0,-1l-5,0l0,-1l-5,0l0,-1l-5,0l0,-1l-5,0l0,-1l-6,0l0,-1l-5,0l0,-1l-5,0l0,-1l-5,0l0,-1l-5,0l0,-1l-5,0l0,-1l-4,0l0,-1l-5,0l0,-1l-5,0l0,-1l-4,0l0,-1l-5,0l0,-1l-5,0l0,-1l-4,0l0,-1l-5,0l0,-1l-5,0l0,-1l-4,0l0,-1l-6,0l0,-1l-7,0l0,-1l-7,0l0,-1l-6,0l0,-1l-7,0l0,-1l-7,0l0,-1l-6,0l0,-1l-7,0l0,-1l-6,0l0,-1l-7,0l0,-1l-7,0l0,-1l-6,0l0,-1l-7,0l0,-1l-6,0l0,-1l-7,0l0,-1l-7,0l0,-1l-6,0l0,-1l-7,0l0,-1l-7,0l0,-1l-6,0l0,-1l-7,0l0,-1l-6,0l0,-1l-7,0l0,-1l-7,0l0,-1l-6,0l0,-1l-7,0l0,-1l-7,0l0,-1l-6,0l0,-1l-7,0l0,-1l-6,0l0,-1l-7,0l0,-1l-7,0l0,-1l-6,0l0,-1l-6,0l0,-1l-1,0l0,-2l-1,0l0,-2l-1,0l0,-2l-1,0l0,-2l-1,0l0,-2l-4,0l0,-1l-4,0l0,-1l-4,0l0,-1l-5,0l0,-1l-4,0l0,-1l-4,0l0,-1l-5,0l0,-1l-4,0l0,-1l-5,0l0,-1l-5,0l0,-1l-5,0l0,-1l-5,0l0,-1l-6,0l0,-1l-5,0l0,-1l-5,0l0,-1l-6,0l0,-1l-6,0l0,-1l-6,0l0,-1l-6,0l0,-1l-6,0l0,-1l-6,0l0,-1l-6,0l0,-1l-6,0l0,-1l-6,0l0,-1l-7,0l0,-1l-6,0l0,-1l-6,0l0,-1l-7,0l0,-1l-6,0l0,-1l-6,0l0,-1l-6,0l0,-1l-6,0l0,-1l-5,0l0,-1l-6,0l0,-1l-6,0l0,-1l-5,0l0,-1l-4,0l0,-1l-5,0l0,-1l-5,0l0,-1l-5,0l0,-1l-4,0l0,-1l-5,0l0,-1l-4,0l0,-1l-4,0l0,-1l-4,0l0,-1l-4,0l0,-1l-4,0l0,-1l-4,0l0,-1l-3,0l0,-1l-3,0l0,-1l-4,0l0,-1l-3,0l0,-1l-2,0l0,-1l-3,0l0,-1l-2,0l0,-1l-2,0l0,-1l-1,0l0,-1l-1,0l0,-1l-1,0l0,-1l1,0l0,-1l1,0l0,-1l1,0l0,-1l2,0l0,-1l1,0l0,-1l1,0l0,-3l-2,0l0,-1l-4,0l0,-1l-4,0l0,-1l-4,0l0,-1l-5,0l0,-1l-4,0l0,-1l-4,0l0,-1l-4,0l0,-1l-4,0l0,-1l-4,0l0,-1l-4,0l0,-1l-4,0l0,-1l-4,0l0,-1l-4,0l0,-1l-4,0l0,-1l-4,0l0,-1l-4,0l0,-1l-4,0l0,-1l-4,0l0,-1l-5,0l0,-1l-4,0l0,-1l-4,0l0,-1l-4,0l0,-1l-4,0l0,-1l-4,0l0,-1l-4,0l0,-1l-4,0l0,-1l-4,0l0,-1l-4,0l0,-1l-4,0l0,-1l-4,0l0,-1l-4,0l0,-1l-4,0l0,-1l-4,0l0,-1l-4,0l0,-1l-4,0l0,-1l-4,0l0,-1l-4,0l0,-1l-3,0l0,-1l-4,0l0,-1l-4,0l0,-1l-4,0l0,-1l-4,0l0,-1l-4,0l0,-1l-4,0l0,-1l-4,0l0,-1l-4,0l0,-1l-4,0l0,-1l-4,0l0,-1l-4,0l0,-1l-3,0l0,-1l-4,0l0,-1l-4,0l0,-1l-4,0l0,-1l-4,0l0,-1l-4,0l0,-1l-4,0l0,-1l-4,0l0,-1l-4,0l0,-1l-4,0l0,-1l-4,0l0,-1l-4,0l0,-1l-3,0l0,-1l-4,0l0,-1l-4,0l0,-1l-4,0l0,-1l-4,0l0,-1l-4,0l0,-1l-3,0l0,-1l-4,0l0,-1l-4,0l0,-1l-4,0l0,-1l-4,0l0,-1l-3,0l0,-1l-4,0l0,-1l-4,0l0,-1l-4,0l0,-1l-3,0l0,-1l-4,0l0,-1l-4,0l0,-1l-4,0l0,-1l-3,0l0,-1l-4,0l0,-1l-4,0l0,-1l-4,0l0,-1l-4,0l0,-1l-3,0l0,-1l-4,0l0,-1l-4,0l0,-1l-4,0l0,-1l-3,0l0,-1l-4,0l0,-1l-4,0l0,-1l-4,0l0,-1l-3,0l0,-1l-4,0l0,-1l-4,0l0,-1l-4,0l0,-1l-3,0l0,-1l-4,0l0,-1l-4,0l0,-1l-3,0l0,-1l-4,0l0,-1l-4,0l0,-1l-3,0l0,-1l-4,0l0,-1l-4,0l0,-1l-3,0l0,-1l-4,0l0,-1l-3,0l0,-1l-4,0l0,-1l-4,0l0,-1l-3,0l0,-1l-4,0l0,-1l-3,0l0,-1l-4,0l0,-1l-4,0l0,-1l-3,0l0,-1l-4,0l0,-1l-4,0l0,-1l-3,0l0,-1l-4,0l0,-1l-3,0l0,-1l-4,0l0,-1l-4,0l0,-1l-3,0l0,-1l-4,0l0,-1l-3,0l0,-1l-4,0l0,-1l-4,0l0,-1l-3,0l0,-1l-4,0l0,-1l-3,0l0,-1l-4,0l0,-1l-4,0l0,-1l-3,0l0,-1l-4,0l0,-1l-3,0l0,-1l-4,0l0,-1l-3,0l0,-1l-4,0l0,-1l-3,0l0,-1l-3,0l0,-1l-4,0l0,-1l-3,0l0,-1l-4,0l0,-1l-3,0l0,-1l-4,0l0,-1l-3,0l0,-1l-4,0l0,-1l-3,0l0,-1l-4,0l0,-1l-3,0l0,-1l-3,0l0,-1l-4,0l0,-1l-3,0l0,-1l-4,0l0,-1l-3,0l0,-1l-4,0l0,-1l-3,0l0,-1l-4,0l0,-1l-3,0l0,-1l-4,0l0,-1l-3,0l0,-1l-3,0l0,-1l-4,0l0,-1l-3,0l0,-1l-4,0l0,-1l-3,0l0,-1l-4,0l0,-1l-3,0l0,-1l-4,0l0,-1l-3,0l0,-1l-3,0l0,-1l-4,0l0,-1l-3,0l0,-1l-3,0l0,-1l-4,0l0,-1l-3,0l0,-1l-3,0l0,-1l-4,0l0,-1l-3,0l0,-1l-3,0l0,-1l-3,0l0,-1l-4,0l0,-1l-3,0l0,-1l-3,0l0,-1l-4,0l0,-1l-3,0l0,-1l-3,0l0,-1l-4,0l0,-1l-3,0l0,-1l-3,0l0,-1l-3,0l0,-1l-4,0l0,-1l-3,0l0,-1l-3,0l0,-1l-4,0l0,-1l-3,0l0,-1l-3,0l0,-1l-4,0l0,-1l-3,0l0,-1l-3,0l0,-1l-3,0l0,-1l-4,0l0,-1l-3,0l0,-1l-3,0l0,-1l-4,0l0,-1l-3,0l0,-1l-3,0l0,-1l-3,0l0,-1l-4,0l0,-1l-3,0l0,-1l-3,0l0,-1l-3,0l0,-1l-3,0l0,-1l-4,0l0,-1l-3,0l0,-1l-3,0l0,-1l-3,0l0,-1l-3,0l0,-1l-3,0l0,-1l-3,0l0,-1l-4,0l0,-1l-3,0l0,-1l-3,0l0,-1l-3,0l0,-1l-3,0l0,-1l-3,0l0,-1l-3,0l0,-1l-4,0l0,-1l-3,0l0,-1l-3,0l0,-1l-3,0l0,-1l-3,0l0,-1l-3,0l0,-1l-3,0l0,-1l-4,0l0,-1l-3,0l0,-1l-3,0l0,-1l-3,0l0,-1l-3,0l0,-1l-3,0l0,-1l-3,0l0,-1l-4,0l0,-1l-3,0l0,-1l-3,0l0,-1l-3,0l0,-1l-3,0l0,-1l-3,0l0,-1l-3,0l0,-1l-3,0l0,-1l-4,0l0,-1l-3,0l0,-1l-3,0l0,-1l-3,0l0,-1l-3,0l0,-1l-3,0l0,-1l-3,0l0,-1l-3,0l0,-1l-3,0l0,-1l-3,0l0,-1l-3,0l0,-1l-3,0l0,-1l-3,0l0,-1l-3,0l0,-1l-3,0l0,-1l-3,0l0,-1l-3,0l0,-1l-3,0l0,-1l-3,0l0,-1l-3,0l0,-1l-3,0l0,-1l-3,0l0,-1l-3,0l0,-1l-3,0l0,-1l-3,0l0,-1l-3,0l0,-1l-3,0l0,-1l-3,0l0,-1l-3,0l0,-1l-3,0l0,-1l-3,0l0,-1l-3,0l0,-1l-3,0l0,-1l-3,0l0,-1l-3,0l0,-1l-3,0l0,-1l-3,0l0,-1l-2,0l0,-1l-3,0l0,-1l-3,0l0,-1l-3,0l0,-1l-3,0l0,-1l-3,0l0,-1l-3,0l0,-1l-3,0l0,-1l-3,0l0,-1l-4,0l0,-1l-3,0l0,-1l-4,0l0,-1l-4,0l0,-1l-4,0l0,-1l-4,0l0,-1l-4,0l0,-1l-4,0l0,-1l-5,0l0,-1l-4,0l0,-1l-5,0l0,-1l-5,0l0,-1l-5,0l0,-1l-5,0l0,-1l-5,0l0,-1l-5,0l0,-1l-5,0l0,-1l-5,0l0,-1l-5,0l0,-1l-4,0l0,-1l-5,0l0,-1l-4,0l0,-1l-5,0l0,-1l-5,0l0,-1l-4,0l0,-1l-5,0l0,-1l-5,0l0,-1l-4,0l0,-1l-5,0l0,-1l-4,0l0,-1l-5,0l0,-1l-4,0l0,-1l-5,0l0,-1l-5,0l0,-1l-4,0l0,-1l-5,0l0,-1l-4,0l0,-1l-4,0l0,-1l-5,0l0,-1l-4,0l0,-1l-4,0l0,-1l-4,0l0,-1l-6,0l0,-1l-9,0l0,-1l-9,0l0,-1l-10,0l0,-1l-14,0l0,-1l-16,0l0,1l2,0l0,1l2,0l0,1l3,0l0,1l2,0l0,1l3,0l0,1l3,0l0,1l-3,0l0,-1l-3,0l0,-1l-3,0l0,-1l-3,0l0,-1l-3,0l0,-1l-3,0l0,-1l-4,0l0,-1l-24,0l0,1l1,0l0,1l3,0l0,1l2,0l0,1l3,0l0,1l2,0l0,1l3,0l0,1l3,0l0,1l2,0l0,1l3,0l0,1l2,0l0,1l3,0l0,1l2,0l0,1l3,0l0,1l3,0l0,1l2,0l0,1l3,0l0,1l2,0l0,1l-2,0l0,-1l-3,0l0,-1l-3,0l0,-1l-3,0l0,-1l-3,0l0,-1l-2,0l0,-1l-3,0l0,-1l-3,0l0,-1l-3,0l0,-1l-3,0l0,-1l-3,0l0,-1l-3,0l0,-1l-3,0l0,-1l-2,0l0,-1l-3,0l0,-1l-3,0l0,-1l-3,0l0,-1l-2,0l0,2l3,0l0,1l2,0l0,1l2,0l0,1l3,0l0,1l2,0l0,1l2,0l0,1l3,0l0,1l2,0l0,1l3,0l0,1l2,0l0,1l3,0l0,1l2,0l0,1l3,0l0,1l3,0l0,1l2,0l0,1l3,0l0,1l2,0l0,1l3,0l0,1l3,0l0,1l2,0l0,1l3,0l0,1l3,0l0,1l3,0l0,1l2,0l0,1l3,0l0,1l3,0l0,1l3,0l0,1l3,0l0,1l2,0l0,1l3,0l0,1l3,0l0,1l3,0l0,1l3,0l0,1l3,0l0,1l3,0l0,1l3,0l0,1l3,0l0,1l2,0l0,1l3,0l0,1l3,0l0,1l3,0l0,1l3,0l0,1l3,0l0,1l3,0l0,1l3,0l0,1l3,0l0,1l3,0l0,1l3,0l0,1l3,0l0,1l3,0l0,1l2,0l0,1l3,0l0,1l3,0l0,1l3,0l0,1l3,0l0,1l3,0l0,1l3,0l0,1l2,0l0,1l3,0l0,1l3,0l0,1l3,0l0,1l2,0l0,1l-3,0l0,-1l-4,0l0,-1l-4,0l0,-1l-4,0l0,-1l-5,0l0,-1l-5,0l0,-1l-4,0l0,-1l-6,0l0,-1l-6,0l0,-1l-7,0l0,-1l-17,0l0,1l-2,0l0,1l-1,0l0,1l-1,0l0,2l1,0l0,2l1,0l0,1l1,0l0,2l1,0l0,1l1,0l0,1l2,0l0,1l1,0l0,1l1,0l0,1l1,0l0,1l2,0l0,1l1,0l0,1l2,0l0,1l1,0l0,1l2,0l0,1l1,0l0,1l2,0l0,1l1,0l0,1l2,0l0,1l2,0l0,1l1,0l0,1l2,0l0,1l2,0l0,1l1,0l0,1l2,0l0,1l2,0l0,1l2,0l0,1l2,0l0,1l2,0l0,1l1,0l0,1l2,0l0,1l2,0l0,1l2,0l0,1l2,0l0,1l2,0l0,1l2,0l0,1l2,0l0,1l1,0l0,1l2,0l0,1l2,0l0,1l2,0l0,1l2,0l0,1l2,0l0,1l2,0l0,1l2,0l0,1l2,0l0,1l2,0l0,1l2,0l0,1l3,0l0,1l2,0l0,1l2,0l0,1l2,0l0,1l3,0l0,1l2,0l0,1l2,0l0,1l2,0l0,1l3,0l0,1l2,0l0,1l2,0l0,1l3,0l0,1l2,0l0,1l2,0l0,1l3,0l0,1l2,0l0,1l3,0l0,1l2,0l0,1l2,0l0,1l3,0l0,1l2,0l0,1l3,0l0,1l2,0l0,1l3,0l0,1l2,0l0,1l3,0l0,1l2,0l0,1l3,0l0,1l2,0l0,1l-2,0l0,-1l-3,0l0,-1l-3,0l0,-1l-3,0l0,-1l-3,0l0,-1l-3,0l0,-1l-4,0l0,-1l-3,0l0,-1l-3,0l0,-1l-4,0l0,-1l-3,0l0,-1l-4,0l0,-1l-5,0l0,-1l-6,0l0,3l1,0l0,2l1,0l0,1l1,0l0,1l2,0l0,1l1,0l0,1l1,0l0,1l2,0l0,1l2,0l0,1l2,0l0,1l2,0l0,1l2,0l0,1l2,0l0,1l3,0l0,1l2,0l0,1l3,0l0,1l3,0l0,1l3,0l0,1l3,0l0,1l3,0l0,1l3,0l0,1l3,0l0,1l3,0l0,1l4,0l0,1l3,0l0,1l4,0l0,1l3,0l0,1l4,0l0,1l4,0l0,1l4,0l0,1l3,0l0,1l4,0l0,1l4,0l0,1l4,0l0,1l4,0l0,1l4,0l0,1l4,0l0,1l4,0l0,1l4,0l0,1l4,0l0,1l4,0l0,1l4,0l0,1l4,0l0,1l3,0l0,1l4,0l0,1l4,0l0,1l4,0l0,1l3,0l0,1l4,0l0,1l3,0l0,1l4,0l0,1l3,0l0,1l3,0l0,1l3,0l0,1l2,0l0,1l3,0l0,2l-11,0l0,-1l-5,0l0,-1l-4,0l0,-1l-4,0l0,-1l-4,0l0,-1l-4,0l0,-1l-3,0l0,-1l-4,0l0,-1l-3,0l0,-1l-3,0l0,-1l-4,0l0,-1l-3,0l0,-1l-3,0l0,-1l-3,0l0,-1l-4,0l0,-1l-3,0l0,-1l-3,0l0,-1l-3,0l0,-1l-3,0l0,-1l-4,0l0,-1l-3,0l0,-1l-3,0l0,-1l-3,0l0,-1l-3,0l0,-1l-3,0l0,-1l-4,0l0,-1l-3,0l0,-1l-3,0l0,-1l-3,0l0,-1l-3,0l0,-1l-4,0l0,-1l-3,0l0,-1l-3,0l0,-1l-3,0l0,-1l-4,0l0,-1l-3,0l0,-1l-3,0l0,-1l-4,0l0,-1l-3,0l0,-1l-4,0l0,-1l-3,0l0,-1l-4,0l0,-1l-4,0l0,-1l-4,0l0,-1l-4,0l0,-1l-4,0l0,-1l-5,0l0,-1l-5,0l0,-1l-16,0l0,1l1,0l0,1l3,0l0,1l3,0l0,1l3,0l0,1l3,0l0,1l2,0l0,1l3,0l0,1l3,0l0,1l3,0l0,1l2,0l0,1l3,0l0,1l3,0l0,1l2,0l0,1l3,0l0,1l3,0l0,1l2,0l0,1l3,0l0,1l2,0l0,1l3,0l0,1l3,0l0,1l2,0l0,1l3,0l0,1l2,0l0,1l3,0l0,1l2,0l0,1l3,0l0,1l3,0l0,1l2,0l0,1l3,0l0,1l2,0l0,1l3,0l0,1l2,0l0,1l3,0l0,1l3,0l0,1l2,0l0,1l3,0l0,1l3,0l0,1l2,0l0,1l3,0l0,1l3,0l0,1l3,0l0,1l2,0l0,1l3,0l0,1l3,0l0,1l2,0l0,1l3,0l0,1l3,0l0,1l2,0l0,1l3,0l0,1l3,0l0,1l3,0l0,1l3,0l0,1l3,0l0,1l3,0l0,1l3,0l0,1l3,0l0,1l3,0l0,1l4,0l0,1l3,0l0,1l3,0l0,1l4,0l0,1l4,0l0,1l1,0l0,1l1,0l0,2l1,0l0,2l-8,0l0,-1l-4,0l0,-1l-4,0l0,-1l-4,0l0,-1l-3,0l0,-1l-3,0l0,-1l-3,0l0,-1l-3,0l0,-1l-3,0l0,-1l-3,0l0,-1l-3,0l0,-1l-3,0l0,-1l-3,0l0,-1l-2,0l0,-1l-3,0l0,-1l-3,0l0,-1l-3,0l0,-1l-3,0l0,-1l-2,0l0,-1l-3,0l0,-1l-3,0l0,-1l-3,0l0,-1l-2,0l0,-1l-3,0l0,-1l-3,0l0,-1l-3,0l0,-1l-3,0l0,-1l-2,0l0,-1l-3,0l0,-1l-3,0l0,-1l-3,0l0,-1l-3,0l0,-1l-2,0l0,-1l-3,0l0,-1l-3,0l0,-1l-3,0l0,-1l-3,0l0,-1l-3,0l0,-1l-3,0l0,-1l-4,0l0,-1l-3,0l0,-1l-4,0l0,-1l-4,0l0,-1l-6,0l0,1l-1,0l0,2l3,0l0,1l3,0l0,1l3,0l0,1l3,0l0,1l3,0l0,1l3,0l0,1l3,0l0,1l3,0l0,1l3,0l0,1l3,0l0,1l3,0l0,1l3,0l0,1l3,0l0,1l3,0l0,1l3,0l0,1l3,0l0,1l3,0l0,1l3,0l0,1l3,0l0,1l3,0l0,1l3,0l0,1l3,0l0,1l3,0l0,1l3,0l0,1l2,0l0,1l3,0l0,1l3,0l0,1l3,0l0,1l3,0l0,1l3,0l0,1l3,0l0,1l3,0l0,1l3,0l0,1l3,0l0,1l3,0l0,1l3,0l0,1l3,0l0,1l3,0l0,1l3,0l0,1l3,0l0,1l3,0l0,1l3,0l0,1l3,0l0,1l3,0l0,1l-4,0l0,-1l-9,0l0,-1l-11,0l0,1l-6,0l0,1l-2,0l0,1l-2,0l0,1l-1,0l0,2l-1,0l0,2l-1,0l0,5l-1,0l0,4l-1,0l0,1l-1,0l0,-1l-2,0l0,-1l-1,0l0,-1l-2,0l0,-1l-2,0l0,-1l-1,0l0,-1l-2,0l0,-1l-2,0l0,-1l-1,0l0,-1l-2,0l0,-1l-1,0l0,-1l-2,0l0,-1l-1,0l0,-1l-2,0l0,-1l-1,0l0,-1l-2,0l0,-1l-2,0l0,-1l-1,0l0,-1l-2,0l0,-1l-1,0l0,-1l-2,0l0,-1l-1,0l0,-1l-2,0l0,-1l-2,0l0,-1l-1,0l0,-1l-2,0l0,-1l-1,0l0,-1l-2,0l0,-1l-1,0l0,-1l-2,0l0,-1l-2,0l0,-1l-1,0l0,-1l-2,0l0,-1l-1,0l0,-1l-2,0l0,-1l-1,0l0,-1l-2,0l0,-1l-2,0l0,-1l-1,0l0,-1l-2,0l0,-1l-1,0l0,-1l-2,0l0,-1l-1,0l0,-1l-2,0l0,-1l-1,0l0,-1l-2,0l0,-1l-2,0l0,-1l-1,0l0,-1l-2,0l0,-1l-1,0l0,-1l-2,0l0,-1l-1,0l0,-1l-2,0l0,-1l-2,0l0,-1l-1,0l0,-1l-2,0l0,-1l-1,0l0,-1l-2,0l0,-1l-1,0l0,-1l-2,0l0,-1l-2,0l0,-1l-1,0l0,-1l-2,0l0,-1l-1,0l0,-1l-2,0l0,-1l-1,0l0,-1l-2,0l0,-1l-2,0l0,-1l-1,0l0,-1l-2,0l0,-1l-1,0l0,-1l-2,0l0,-1l-1,0l0,-1l-2,0l0,-1l-2,0l0,-1l-1,0l0,-1l-2,0l0,-1l-1,0l0,-1l-2,0l0,-1l-1,0l0,-1l-2,0l0,-1l-2,0l0,-1l-1,0l0,-1l-2,0l0,-1l-1,0l0,-1l-2,0l0,-1l-1,0l0,-1l-2,0l0,-1l-2,0l0,-1l-1,0l0,-1l-2,0l0,-1l-1,0l0,-1l-2,0l0,-1l-1,0l0,-1l-2,0l0,-1l-2,0l0,-1l-1,0l0,-1l-2,0l0,-1l-1,0l0,-1l-2,0l0,-1l-1,0l0,-1l-2,0l0,-1l-1,0l0,-1l-2,0l0,-1l-1,0l0,-1l-2,0l0,-1l-1,0l0,-1l-2,0l0,-1l-2,0l0,-1l-1,0l0,-1l-2,0l0,-1l-1,0l0,-1l-2,0l0,-1l-1,0l0,-1l-2,0l0,-1l-1,0l0,-1l-2,0l0,-1l-1,0l0,-1l-2,0l0,-1l-2,0l0,-1l-1,0l0,-1l-2,0l0,-1l-1,0l0,-1l-2,0l0,-1l-1,0l0,-1l-2,0l0,-1l-1,0l0,-1l-2,0l0,-1l-1,0l0,-1l-2,0l0,-1l-1,0l0,-1l-2,0l0,-1l-2,0l0,-1l-1,0l0,-1l-2,0l0,-1l-1,0l0,-1l-2,0l0,-1l-1,0l0,-1l-2,0l0,-1l-1,0l0,-1l-2,0l0,-1l-1,0l0,-1l-2,0l0,-1l-1,0l0,-1l-2,0l0,-1l-1,0l0,-1l-2,0l0,-1l-1,0l0,-1l-2,0l0,-1l-1,0l0,-1l-1,0l0,-1l-2,0l0,-1l-1,0l0,-1l-2,0l0,-1l-1,0l0,-1l-2,0l0,-1l-1,0l0,-1l-2,0l0,-1l-1,0l0,-1l-2,0l0,-1l-1,0l0,-1l-2,0l0,-1l-1,0l0,-1l-2,0l0,-1l-1,0l0,-1l-2,0l0,-1l-1,0l0,-1l-2,0l0,-1l-1,0l0,-1l-2,0l0,-1l-1,0l0,-1l-2,0l0,-1l-1,0l0,-1l-1,0l0,-1l-2,0l0,-1l-1,0l0,-1l-2,0l0,-1l-1,0l0,-1l-2,0l0,-1l-1,0l0,-1l-2,0l0,-1l-1,0l0,-1l-1,0l0,-1l-2,0l0,-1l-1,0l0,-1l-2,0l0,-1l-1,0l0,-1l-2,0l0,-1l-1,0l0,-1l-2,0l0,-1l-1,0l0,-1l-2,0l0,-1l-1,0l0,-1l-2,0l0,-1l-1,0l0,-1l-2,0l0,-1l-1,0l0,-1l-2,0l0,-1l-1,0l0,-1l-2,0l0,-1l-1,0l0,-1l-2,0l0,-1l-1,0l0,-1l-1,0l0,-1l-2,0l0,-1l-1,0l0,-1l-2,0l0,-1l-1,0l0,-1l-2,0l0,-1l-1,0l0,-1l-2,0l0,-1l-1,0l0,-1l-2,0l0,-1l-1,0l0,-1l-2,0l0,-1l-1,0l0,-1l-2,0l0,-1l-1,0l0,-1l-2,0l0,-1l-1,0l0,-1l-2,0l0,-1l-1,0l0,-1l-2,0l0,-1l-1,0l0,-1l-1,0l0,-1l-2,0l0,-1l-1,0l0,-1l-2,0l0,-1l-1,0l0,-1l-2,0l0,-1l-1,0l0,-1l-2,0l0,-1l-1,0l0,-1l-2,0l0,-1l-1,0l0,-1l-2,0l0,-1l-1,0l0,-1l-2,0l0,-1l-1,0l0,-1l-2,0l0,-1l-1,0l0,-1l-2,0l0,-1l-1,0l0,-1l-2,0l0,-1l-1,0l0,-1l-1,0l0,-1l-2,0l0,-1l-1,0l0,-1l-2,0l0,-1l-1,0l0,-1l-2,0l0,-1l-1,0l0,-1l-1,0l0,-1l-2,0l0,-1l-1,0l0,-1l-2,0l0,-1l-1,0l0,-1l-1,0l0,-1l-2,0l0,-1l-1,0l0,-1l-2,0l0,-1l-1,0l0,-1l-2,0l0,-1l-1,0l0,-1l-1,0l0,-1l-2,0l0,-1l-1,0l0,-1l-1,0l0,-1l-2,0l0,-1l-1,0l0,-1l-2,0l0,-1l-1,0l0,-1l-1,0l0,-1l-2,0l0,-1l-1,0l0,-1l-1,0l0,-1l-2,0l0,-1l-1,0l0,-1l-2,0l0,-1l-1,0l0,-1l-1,0l0,-1l-2,0l0,-1l-1,0l0,-1l-1,0l0,-1l-2,0l0,-1l-1,0l0,-1l-2,0l0,-1l-1,0l0,-1l-1,0l0,-1l-2,0l0,-1l-1,0l0,-1l-2,0l0,-1l-1,0l0,-1l-1,0l0,-1l-2,0l0,-1l-1,0l0,-1l-1,0l0,-1l-2,0l0,-1l-1,0l0,-1l-2,0l0,-1l-1,0l0,-1l-1,0l0,-1l-2,0l0,-1l-1,0l0,-1l-1,0l0,-1l-2,0l0,-1l-1,0l0,-1l-2,0l0,-1l-1,0l0,-1l-1,0l0,-1l-2,0l0,-1l-1,0l0,-1l-1,0l0,-1l-2,0l0,-1l-1,0l0,-1l-2,0l0,-1l-1,0l0,-1l-1,0l0,-1l-2,0l0,-1l-1,0l0,-1l-2,0l0,-1l-1,0l0,-1l-1,0l0,-1l-2,0l0,-1l-1,0l0,-1l-1,0l0,-1l-2,0l0,-1l-1,0l0,-1l-2,0l0,-1l-1,0l0,-1l-1,0l0,-1l-2,0l0,-1l-1,0l0,-1l-1,0l0,-1l-2,0l0,-1l-1,0l0,-1l-2,0l0,-1l-1,0l0,-1l-1,0l0,-1l-2,0l0,-1l-1,0l0,-1l-2,0l0,-1l-1,0l0,-1l-1,0l0,-1l-2,0l0,-1l-1,0l0,-1l-1,0l0,-1l-2,0l0,-1l-1,0l0,-1l-2,0l0,-1l-1,0l0,-1l-1,0l0,-1l-2,0l0,-1l-1,0l0,-1l-1,0l0,-1l-2,0l0,-1l-1,0l0,-1l-2,0l0,-1l-1,0l0,-1l-1,0l0,-1l-2,0l0,-1l-1,0l0,-1l-2,0l0,-1l-1,0l0,-1l-1,0l0,-1l-2,0l0,-1l-1,0l0,-1l-2,0l0,-1l-1,0l0,-1l-1,0l0,-1l-2,0l0,-1l-1,0l0,-1l-1,0l0,-1l-2,0l0,-1l-1,0l0,-1l-1,0l0,-1l-2,0l0,-1l-1,0l0,-1l-2,0l0,-1l-1,0l0,-1l-1,0l0,-1l-2,0l0,-1l-1,0l0,-1l-1,0l0,-1l-2,0l0,-1l-1,0l0,-1l-1,0l0,-1l-2,0zm327,169l1,0l0,1l-1,0l0,-1zm3,1l1,0l0,1l-1,0l0,-1zm-7,10l2,0l0,1l-2,0l0,-1zm3,1l1,0l0,1l-1,0l0,-1zm3,1l1,0l0,1l-1,0l0,-1zm3,1l1,0l0,1l-1,0l0,-1zm111,44l2,0l0,1l-2,0l0,-1zm4,1l1,0l0,1l-1,0l0,-1zm74,72l2,0l0,1l-2,0l0,-1zm3,1l1,0l0,1l-1,0l0,-1zm3,1l1,0l0,1l-1,0l0,-1zm143,211l1,0l0,1l-1,0l0,-1zm388,154l1,0l0,1l-1,0l0,-1zm1762,868l2,0l0,1l-2,0l0,-1zm128,259l1,0l0,1l-1,0l0,-1zm69,32l1,0l0,1l-1,0l0,-1zm5,2l1,0l0,1l-1,0l0,-1zm2,1l1,0l0,1l-1,0l0,-1zm-6,10l1,0l0,1l-1,0l0,-1zm2,1l2,0l0,1l-2,0l0,-1z" id="path126"/>
                        </g>
                    </g>
                </g>
            </g>
        </g>
    </g>
</svg>